<svg width="41" height="37" viewBox="0 0 41 37" fill="none" xmlns="http://www.w3.org/2000/svg">
<path opacity="0.2" fill-rule="evenodd" clip-rule="evenodd" d="M12.3093 29.1339L12.2911 29.1338C12.1109 29.1716 11.908 29.1377 11.7526 29.0073L4.68363 23.0748C4.61479 23.0171 4.56852 22.9514 4.54225 22.8831C4.50471 22.8398 4.47342 22.7928 4.44919 22.743C4.40514 22.6525 4.38553 22.5548 4.39175 22.4571L4.39175 2.27195C4.39258 1.972 4.46401 1.67514 4.60195 1.39842C4.73988 1.1217 4.9416 0.870569 5.19552 0.659463C5.44943 0.448357 5.75054 0.28143 6.08155 0.168269C6.41256 0.0551085 6.76695 -0.00205724 7.12436 5.65486e-05L29.7114 5.4574e-05C30.4294 5.45112e-05 31.1179 0.239414 31.6256 0.665478C32.1333 1.09154 32.4185 1.66941 32.4185 2.27195V3.75398C34.643 5.08026 36.1811 7.74596 36.2477 10.8372C36.2448 10.9113 36.2394 10.9846 36.2314 11.0569C36.2421 11.1608 36.2477 11.2666 36.2477 11.3739V13.339C36.2477 13.525 36.231 13.7065 36.1993 13.8816H38.0792C39.4583 13.8816 40.5763 14.9647 40.5763 16.3007V20.9143C40.5763 21.1048 40.5535 21.2901 40.5105 21.4679C39.9226 26.8572 35.2204 31.0577 29.5036 31.0665H29.4673C27.1138 31.0629 24.9322 30.3488 23.1388 29.1338L12.3093 29.1339Z" fill="#007FFF"/>
<path d="M1.8365 29.6345L9.10757 34.8307C9.18305 34.9047 9.27582 34.9638 9.37965 35.0041C9.48349 35.0444 9.59601 35.065 9.70969 35.0643L27.5634 35.0643C27.9309 35.0674 28.2954 35.0069 28.6359 34.8865C28.9764 34.7661 29.2861 34.5882 29.5472 34.3629C29.8083 34.1377 30.0155 33.8696 30.1569 33.5742C30.2983 33.2788 30.3711 32.9619 30.3711 32.6419L30.3711 6.42235C30.3711 5.77988 30.0781 5.16372 29.5564 4.70942C29.0348 4.25512 28.3273 3.9999 27.5896 3.9999L4.38235 3.9999C4.01513 3.99765 3.65101 4.0586 3.31091 4.17926C2.97081 4.29992 2.66144 4.47791 2.40056 4.70301C2.13967 4.9281 1.9324 5.19587 1.79068 5.49093C1.64895 5.78599 1.57557 6.10252 1.57472 6.42235L1.57472 29.076C1.56832 29.1801 1.58847 29.2842 1.63373 29.3808C1.67899 29.4774 1.74824 29.564 1.8365 29.6345Z" fill="#1D1E22"/>
<path fill-rule="evenodd" clip-rule="evenodd" d="M20.1917 15.7239C20.2812 11.2438 23.1992 7.64648 26.7858 7.64648C30.3724 7.64648 33.2905 11.2438 33.3799 15.7239C33.3773 15.7989 33.3721 15.8731 33.3646 15.9464C33.3747 16.0516 33.3799 16.1587 33.3799 16.2673V18.2568C33.3799 19.7217 32.4349 20.9093 31.2691 20.9093H22.2983C21.1325 20.9093 20.1875 19.7217 20.1875 18.2568V16.2673C20.1875 16.1514 20.1934 16.0372 20.2049 15.9251C20.1985 15.8588 20.1941 15.7917 20.1917 15.7239Z" fill="#1D1E22"/>
<path fill-rule="evenodd" clip-rule="evenodd" d="M31.4575 15.1752L31.4824 14.9424C31.4833 14.9338 31.4841 14.9251 31.4848 14.9163C31.3713 11.0752 28.8393 8.69834 26.5086 8.69834C24.1778 8.69834 21.6458 11.0752 21.5323 14.9163C21.5329 14.9227 21.5334 14.9289 21.534 14.9351L21.5573 15.1681L21.5325 15.401C21.5284 15.4391 21.5262 15.4791 21.5262 15.5209V17.6162C21.5262 17.8881 21.6186 18.0689 21.6842 18.1481C21.6856 18.1498 21.6869 18.1514 21.6882 18.1529H31.3243C31.3256 18.1514 31.327 18.1498 31.3284 18.1481C31.3939 18.0689 31.4863 17.8881 31.4863 17.6162V15.5209C31.4863 15.4817 31.4808 15.4082 31.4808 15.4082L31.4575 15.1752ZM19.2859 14.9486C19.3838 10.2301 22.58 6.44141 26.5086 6.44141C30.4371 6.44141 33.6333 10.2301 33.7313 14.9486C33.7284 15.0276 33.7227 15.1057 33.7145 15.1829C33.7256 15.2937 33.7313 15.4065 33.7313 15.5209V17.6162C33.7313 19.1591 32.6961 20.4098 31.4193 20.4098H21.5933C20.3164 20.4098 19.2812 19.1591 19.2812 17.6162V15.5209C19.2812 15.3988 19.2877 15.2785 19.3003 15.1605C19.2933 15.0906 19.2885 15.0199 19.2859 14.9486Z" fill="#007FFF"/>
<path fill-rule="evenodd" clip-rule="evenodd" d="M17.9602 18.1953C16.5432 18.1953 15.3945 19.3501 15.3945 20.7747V24.7646C15.3919 24.865 15.3906 24.9657 15.3906 25.0667C15.3906 25.1678 15.3919 25.2685 15.3945 25.3689V25.694C15.3945 25.8735 15.4127 26.0487 15.4475 26.2178C16.0211 31.9962 20.867 36.5096 26.7635 36.5191H26.8007C32.6746 36.5096 37.5059 32.0308 38.11 26.2844C38.1541 26.0948 38.1775 25.8971 38.1775 25.694V20.7747C38.1775 19.3501 37.0288 18.1953 35.6118 18.1953H17.9602Z" fill="#1D1E22"/>
<path fill-rule="evenodd" clip-rule="evenodd" d="M16.9926 24.7854L16.992 24.8062C16.9898 24.8927 16.9887 24.9796 16.9887 25.0667C16.9887 25.1539 16.9898 25.2407 16.992 25.3273L16.9926 25.3481V25.694C16.9926 25.7638 16.9996 25.8303 17.0126 25.8932L17.0294 25.9751L17.0376 26.0583C17.5306 31.0239 21.6972 34.9038 26.765 34.9124C26.7654 34.9124 26.7657 34.9124 26.766 34.9124H26.7982C26.7985 34.9124 26.7989 34.9124 26.7992 34.9124C31.8475 34.9038 36.0016 31.0537 36.5208 26.1155L36.5312 26.0158L36.554 25.9181C36.5704 25.8477 36.5794 25.7729 36.5794 25.694V20.7747C36.5794 20.2374 36.1462 19.8019 35.6118 19.8019H17.9602C17.4258 19.8019 16.9926 20.2374 16.9926 20.7747V24.7854ZM26.8007 36.5191H26.7635C20.867 36.5096 16.0211 31.9962 15.4475 26.2178C15.4127 26.0487 15.3945 25.8735 15.3945 25.694V25.3689C15.3919 25.2685 15.3906 25.1678 15.3906 25.0667C15.3906 24.9657 15.3919 24.865 15.3945 24.7646V20.7747C15.3945 19.3501 16.5432 18.1953 17.9602 18.1953H35.6118C37.0288 18.1953 38.1775 19.3501 38.1775 20.7747V25.694C38.1775 25.8971 38.1541 26.0948 38.11 26.2844C37.5059 32.0308 32.6746 36.5096 26.8007 36.5191Z" fill="#007FFF"/>
<path fill-rule="evenodd" clip-rule="evenodd" d="M15.1679 20.7743C15.1679 19.226 16.4167 17.9688 17.9598 17.9688H35.6114C37.1544 17.9688 38.4032 19.226 38.4032 20.7743V25.6936C38.4032 25.9092 38.379 26.1193 38.333 26.3214C37.7108 32.174 32.7876 36.7352 26.8007 36.7448H26.7631C20.7523 36.7351 15.8133 32.1375 15.2231 26.2512C15.1869 26.0708 15.1679 25.8843 15.1679 25.6936V25.3713C15.1654 25.27 15.1641 25.1683 15.1641 25.0663C15.1641 24.9644 15.1654 24.8627 15.1679 24.7613V20.7743ZM17.9598 18.4211C16.6688 18.4211 15.6203 19.4735 15.6203 20.7743V24.77C15.6177 24.8685 15.6164 24.9673 15.6164 25.0663C15.6164 25.1654 15.6177 25.2642 15.6202 25.3626L15.6203 25.3684L15.6203 25.6936C15.6203 25.8577 15.6369 26.0177 15.6686 26.172L15.6709 26.1834L15.6721 26.1951C16.2345 31.86 20.9852 36.2832 26.7634 36.2925H26.8C32.556 36.2832 37.2924 31.8939 37.8847 26.2603L37.8861 26.2463L37.8893 26.2327C37.9296 26.0598 37.9509 25.8793 37.9509 25.6936V20.7743C37.9509 19.4735 36.9024 18.4211 35.6114 18.4211H17.9598ZM17.9598 20.0277C17.5514 20.0277 17.2183 20.3608 17.2183 20.7743V24.7908L17.2177 24.8116C17.2155 24.8962 17.2144 24.9811 17.2144 25.0663C17.2144 25.1515 17.2155 25.2364 17.2177 25.321L17.2184 25.3476L17.2183 25.6936C17.2183 25.7481 17.2238 25.7993 17.2337 25.8474L17.2529 25.9407L17.2623 26.0355C17.744 30.8877 21.8154 34.6774 26.765 34.6859L26.7978 34.6859C31.7283 34.6774 35.7882 30.9168 36.2954 26.0915L36.3074 25.9777L36.3333 25.8664C36.3458 25.8127 36.3529 25.7552 36.3529 25.6936V20.7743C36.3529 20.3608 36.0198 20.0277 35.6114 20.0277H17.9598ZM16.766 20.7743C16.766 20.1133 17.2993 19.5754 17.9598 19.5754H35.6114C36.2719 19.5754 36.8052 20.1133 36.8052 20.7743V25.6936C36.8052 25.7899 36.7941 25.8819 36.7739 25.969L36.7543 26.053L36.7453 26.1388C36.2143 31.1898 31.9652 35.1293 26.7992 35.1382L26.7978 35.1382H26.7656L26.7642 35.1382C21.5783 35.1293 17.3164 31.1593 16.8122 26.0802L16.8051 26.0087L16.7906 25.9383C16.7747 25.8604 16.766 25.7788 16.766 25.6936V25.3506L16.7656 25.3327C16.7633 25.2442 16.7621 25.1554 16.7621 25.0663C16.7621 24.9772 16.7633 24.8885 16.7656 24.8L16.766 24.7821V20.7743Z" fill="#007FFF"/>
<path fill-rule="evenodd" clip-rule="evenodd" d="M27.6944 25.2755C28.3715 24.9528 28.8397 24.2593 28.8397 23.4559C28.8397 22.3444 27.9434 21.4434 26.8378 21.4434C25.7322 21.4434 24.8359 22.3444 24.8359 23.4559C24.8359 24.2582 25.3029 24.9509 25.9785 25.2742V26.6776C25.9785 26.9625 26.2082 27.1934 26.4916 27.1934H27.1812C27.4646 27.1934 27.6944 26.9625 27.6944 26.6776V25.2755Z" fill="#007FFF"/>
<path opacity="0.4" d="M6.4334 10.1777H13.7494C13.8694 10.1777 13.9882 10.2014 14.0991 10.2473C14.2099 10.2932 14.3107 10.3605 14.3955 10.4453C14.4804 10.5302 14.5477 10.6309 14.5936 10.7418C14.6395 10.8526 14.6631 10.9714 14.6631 11.0914V11.1981C14.6631 11.3181 14.6395 11.4369 14.5936 11.5478C14.5476 11.6587 14.4803 11.7594 14.3955 11.8443C14.3106 11.9292 14.2099 11.9965 14.099 12.0424C13.9881 12.0883 13.8693 12.112 13.7492 12.112H6.4334C6.31339 12.112 6.19455 12.0883 6.08367 12.0424C5.97279 11.9965 5.87205 11.9292 5.78719 11.8443C5.70232 11.7594 5.63501 11.6587 5.58909 11.5478C5.54316 11.4369 5.51953 11.3181 5.51953 11.1981V11.0916C5.51953 10.9716 5.54317 10.8527 5.58909 10.7419C5.63502 10.631 5.70233 10.5302 5.7872 10.4454C5.87206 10.3605 5.9728 10.2932 6.08368 10.2473C6.19455 10.2014 6.31339 10.1777 6.4334 10.1777Z" fill="#007FFF"/>
<path opacity="0.4" d="M6.43323 14.0488H13.7494C13.9917 14.0488 14.2241 14.1451 14.3955 14.3164C14.5668 14.4878 14.6631 14.7202 14.6631 14.9625V15.0692C14.6631 15.3115 14.5668 15.544 14.3954 15.7154C14.2241 15.8867 13.9916 15.983 13.7492 15.983H6.4334C6.31339 15.983 6.19455 15.9594 6.08368 15.9135C5.9728 15.8675 5.87206 15.8002 5.7872 15.7154C5.70233 15.6305 5.63502 15.5298 5.58909 15.4189C5.54317 15.308 5.51953 15.1892 5.51953 15.0692V14.9625C5.51953 14.8425 5.54317 14.7237 5.58909 14.6128C5.635 14.502 5.70231 14.4013 5.78715 14.3164C5.872 14.2316 5.97272 14.1643 6.08358 14.1184C6.19443 14.0725 6.31324 14.0488 6.43323 14.0488Z" fill="#007FFF"/>
<path opacity="0.4" d="M6.4334 17.9336H13.7495C13.8694 17.9336 13.9882 17.9572 14.0991 18.0031C14.2099 18.0491 14.3107 18.1164 14.3955 18.2012C14.4804 18.286 14.5477 18.3868 14.5936 18.4976C14.6395 18.6085 14.6631 18.7273 14.6631 18.8473V18.9539C14.6631 19.1963 14.5668 19.4288 14.3955 19.6001C14.2241 19.7715 13.9916 19.8678 13.7493 19.8678H6.4334C6.31339 19.8678 6.19456 19.8442 6.08368 19.7982C5.9728 19.7523 5.87206 19.685 5.7872 19.6001C5.70234 19.5153 5.63502 19.4145 5.5891 19.3037C5.54317 19.1928 5.51953 19.074 5.51953 18.9539V18.8474C5.51953 18.7274 5.54317 18.6086 5.58909 18.4977C5.63502 18.3868 5.70233 18.2861 5.7872 18.2012C5.87206 18.1164 5.9728 18.0491 6.08368 18.0031C6.19455 17.9572 6.31339 17.9336 6.4334 17.9336Z" fill="#007FFF"/>
<path opacity="0.4" d="M6.4334 21.8047H13.7495C13.8694 21.8047 13.9882 21.8283 14.0991 21.8742C14.2099 21.9202 14.3107 21.9875 14.3955 22.0723C14.4804 22.1571 14.5477 22.2579 14.5936 22.3687C14.6395 22.4796 14.6631 22.5984 14.6631 22.7184V22.8252C14.6631 22.9452 14.6395 23.064 14.5936 23.1749C14.5477 23.2857 14.4804 23.3864 14.3955 23.4713C14.3107 23.5561 14.2099 23.6234 14.0991 23.6693C13.9882 23.7152 13.8694 23.7389 13.7495 23.7389H6.4334C6.31339 23.7389 6.19456 23.7153 6.08368 23.6693C5.97281 23.6234 5.87206 23.5561 5.7872 23.4712C5.70234 23.3864 5.63503 23.2856 5.5891 23.1748C5.54317 23.0639 5.51953 22.9451 5.51953 22.825V22.7185C5.51953 22.5985 5.54316 22.4797 5.58909 22.3688C5.63502 22.2579 5.70233 22.1572 5.78719 22.0723C5.87205 21.9875 5.9728 21.9202 6.08368 21.8742C6.19455 21.8283 6.31339 21.8047 6.4334 21.8047Z" fill="#007FFF"/>
<path opacity="0.4" d="M6.4334 25.6816H13.7495C13.8694 25.6816 13.9882 25.7053 14.0991 25.7512C14.2099 25.7971 14.3107 25.8644 14.3955 25.9492C14.4804 26.0341 14.5477 26.1348 14.5936 26.2457C14.6395 26.3565 14.6631 26.4753 14.6631 26.5953V26.7022C14.6631 26.8222 14.6395 26.941 14.5936 27.0518C14.5477 27.1627 14.4804 27.2634 14.3955 27.3482C14.3107 27.4331 14.2099 27.5004 14.0991 27.5463C13.9882 27.5922 13.8694 27.6158 13.7495 27.6158H6.4334C6.31339 27.6158 6.19456 27.5922 6.08368 27.5463C5.9728 27.5004 5.87206 27.433 5.7872 27.3482C5.70234 27.2633 5.63502 27.1626 5.5891 27.0517C5.54317 26.9408 5.51953 26.822 5.51953 26.702V26.5955C5.51953 26.3531 5.61581 26.1207 5.78719 25.9493C5.95857 25.7779 6.19101 25.6816 6.43337 25.6816L6.4334 25.6816Z" fill="#007FFF"/>
<path opacity="0.4" d="M17.8436 10.1777H25.1594C25.4018 10.1777 25.6342 10.274 25.8056 10.4454C25.977 10.6168 26.0732 10.8492 26.0732 11.0916V11.1981C26.0733 11.3181 26.0496 11.4369 26.0037 11.5478C25.9578 11.6587 25.8905 11.7594 25.8056 11.8443C25.7207 11.9292 25.62 11.9965 25.5091 12.0424C25.3983 12.0883 25.2794 12.112 25.1594 12.112H17.8434C17.7234 12.112 17.6046 12.0883 17.4937 12.0424C17.3829 11.9965 17.2821 11.9292 17.1973 11.8444C17.1125 11.7595 17.0452 11.6588 16.9992 11.5479C16.9533 11.4371 16.9297 11.3183 16.9297 11.1983V11.0916C16.9297 10.9716 16.9533 10.8528 16.9992 10.7419C17.0452 10.631 17.1125 10.5303 17.1973 10.4454C17.2822 10.3605 17.383 10.2932 17.4938 10.2473C17.6047 10.2014 17.7236 10.1777 17.8436 10.1777Z" fill="#007FFF"/>
<path opacity="0.4" d="M17.8434 14.0488H25.1596C25.4019 14.0488 25.6343 14.1451 25.8056 14.3164C25.977 14.4878 26.0732 14.7202 26.0732 14.9625V15.0692C26.0732 15.3115 25.977 15.544 25.8056 15.7154C25.6342 15.8867 25.4018 15.983 25.1594 15.983H17.8434C17.7234 15.983 17.6046 15.9594 17.4937 15.9135C17.3829 15.8676 17.2821 15.8003 17.1973 15.7154C17.1125 15.6306 17.0452 15.5299 16.9992 15.419C16.9533 15.3081 16.9297 15.1893 16.9297 15.0694V14.9625C16.9297 14.8425 16.9533 14.7237 16.9992 14.6129C17.0452 14.502 17.1125 14.4013 17.1973 14.3164C17.2821 14.2316 17.3829 14.1643 17.4937 14.1184C17.6046 14.0725 17.7234 14.0488 17.8434 14.0488H17.8434Z" fill="#007FFF"/>
<path fill-rule="evenodd" clip-rule="evenodd" d="M9.1377 36.5898C8.90213 36.5907 8.66595 36.5482 8.4436 36.4619C8.24848 36.3861 8.06382 36.2766 7.90195 36.134L0.659044 30.958L0.638095 30.9413C0.437219 30.7808 0.268264 30.5744 0.154014 30.3306C0.0445856 30.0972 -0.00943433 29.8399 0.000499116 29.578L0.000497148 6.94784L0.000500962 6.94518C0.00175786 6.47281 0.110364 6.00957 0.315046 5.58344C0.519433 5.15792 0.813655 4.78146 1.17308 4.47135C1.53224 4.16146 1.95096 3.92244 2.40233 3.7623C2.85264 3.60254 3.33094 3.52282 3.81095 3.52538L20.0742 3.52539C20.6265 3.52539 21.0742 3.9731 21.0742 4.52539C21.0742 5.07767 20.6265 5.52538 20.0742 5.52538L3.80199 5.52538C3.54866 5.52383 3.2999 5.566 3.07105 5.64719C2.84222 5.72837 2.6422 5.84533 2.47959 5.98562C2.31723 6.12571 2.19692 6.28479 2.11786 6.44938C2.03928 6.61297 2.00112 6.78239 2.0005 6.9493L2.0005 29.4585L9.17809 34.5878L9.18018 34.5898L16.0742 34.5898C16.6265 34.5898 17.0742 35.0375 17.0742 35.5898C17.0742 36.1421 16.6265 36.5898 16.0742 36.5898L9.1377 36.5898Z" fill="#007FFF"/>
</svg>
