<svg width="46" height="38" viewBox="0 0 46 38" fill="none" xmlns="http://www.w3.org/2000/svg">
<path opacity="0.2" fill-rule="evenodd" clip-rule="evenodd" d="M0.423213 27.3892C0.251842 26.7849 0.160156 26.1478 0.160156 25.4879C0.160156 22.9353 1.52956 20.7262 3.57762 19.4332L30.182 0.630856C31.7311 -0.463985 33.8757 -0.0974044 34.972 1.44963L39.4659 7.79106C40.5623 9.3381 40.1952 11.4798 38.6461 12.5746L30.6617 18.2175H41.0859C42.9837 18.2175 44.5222 19.7539 44.5222 21.6492V29.418C44.5222 31.3132 42.9837 32.8496 41.0859 32.8496H7.81955C7.61236 32.8496 7.40888 32.8312 7.21082 32.7958C5.00666 32.7319 2.87826 31.7075 1.52184 29.7935C0.990957 29.0443 0.628023 28.2294 0.423213 27.3892Z" fill="#007FFF"/>
<path fill-rule="evenodd" clip-rule="evenodd" d="M7.91452 33.5036C4.91548 33.1679 2.58984 30.7632 2.58984 27.8466C2.58984 24.7231 5.25724 22.1867 8.56253 22.1499C8.58953 22.1489 8.61667 22.1484 8.64392 22.1484H39.1912C40.3931 22.1484 41.3674 23.1214 41.3674 24.3217V31.4555C41.3674 32.6557 40.3931 33.6287 39.1912 33.6287H8.64392C8.38807 33.6287 8.14254 33.5846 7.91452 33.5036Z" fill="#1D1E22"/>
<path fill-rule="evenodd" clip-rule="evenodd" d="M8.64273 23.1258C8.62748 23.1258 8.61235 23.1261 8.59732 23.1267L8.58479 23.1271L8.57224 23.1273C5.74949 23.1586 3.56794 25.3108 3.56794 27.8461C3.56794 30.2148 5.46769 32.2452 8.02244 32.5312L8.13488 32.5438L8.24149 32.5817C8.36564 32.6258 8.50026 32.6502 8.64273 32.6502H39.19C39.8511 32.6502 40.3869 32.1151 40.3869 31.4549V24.3211C40.3869 23.661 39.8511 23.1258 39.19 23.1258H8.64273ZM8.5386 21.1716C8.57321 21.1705 8.60792 21.1699 8.64273 21.1699H39.19C40.9327 21.1699 42.3455 22.5808 42.3455 24.3211V31.4549C42.3455 33.1953 40.9327 34.6061 39.19 34.6061H8.64273C8.31519 34.6061 7.9977 34.5559 7.69849 34.4623C4.30475 34.0323 1.60938 31.2749 1.60938 27.8461C1.60938 24.1381 4.75606 21.2197 8.5386 21.1716Z" fill="#007FFF"/>
<path opacity="0.4" d="M15.7891 25.2094C15.7891 24.906 16.0353 24.6602 16.339 24.6602H32.288C32.5918 24.6602 32.838 24.906 32.838 25.2094V30.7016C32.838 31.0049 32.5918 31.2508 32.288 31.2508H16.339C16.0353 31.2508 15.7891 31.0049 15.7891 30.7016V25.2094Z" fill="#007FFF"/>
<path fill-rule="evenodd" clip-rule="evenodd" d="M11.2403 32.811C8.63152 34.2614 5.35328 33.6234 3.65967 31.2336C1.8474 28.6763 2.53292 25.0773 5.18714 23.1748C5.20939 23.1578 5.23205 23.1411 5.25513 23.1248L29.7436 5.81779C30.7246 5.12444 32.0828 5.35659 32.7771 6.33631L36.9037 12.1594C37.598 13.1391 37.3655 14.4954 36.3845 15.1888L11.896 32.4958C11.6908 32.6408 11.469 32.7453 11.2403 32.811Z" fill="#1D1E22"/>
<path fill-rule="evenodd" clip-rule="evenodd" d="M5.82261 23.924C5.8097 23.9331 5.79706 23.9424 5.78469 23.9519L5.77246 23.9612L5.75994 23.9702C3.51106 25.5821 2.98175 28.5825 4.46081 30.6696C5.8436 32.6208 8.5598 33.1839 10.7658 31.9575L10.8637 31.903L10.9715 31.8721C11.096 31.8363 11.2178 31.7792 11.3321 31.6984L35.8206 14.3914C36.3601 14.0101 36.488 13.2641 36.1061 12.7253L31.9795 6.90216C31.5976 6.36332 30.8507 6.23563 30.3111 6.61697L5.82261 23.924ZM4.60609 22.3897C4.63404 22.3685 4.66241 22.3478 4.6912 22.3274L29.1797 5.02043C30.6022 4.01508 32.5715 4.3517 33.5782 5.77229L37.7048 11.5954C38.7116 13.016 38.3745 14.9826 36.952 15.988L12.4635 33.2949C12.201 33.4805 11.9184 33.6209 11.6258 33.717C8.62843 35.326 4.84602 34.599 2.86209 31.7994C0.719374 28.7758 1.55618 24.5851 4.60609 22.3897Z" fill="#007FFF"/>
<path fill-rule="evenodd" clip-rule="evenodd" d="M9.26404 28.9272C9.92676 28.4588 10.0838 27.5426 9.61479 26.8808C9.14578 26.219 8.22832 26.0621 7.56559 26.5305C6.90286 26.9989 6.74583 27.9151 7.21484 28.5769C7.68385 29.2388 8.60131 29.3956 9.26404 28.9272ZM10.144 30.169C11.4935 29.2152 11.8132 27.3496 10.8582 26.002C9.90322 24.6544 8.03507 24.335 6.6856 25.2888C5.33614 26.2425 5.01638 28.1081 5.9714 29.4557C6.92641 30.8033 8.79456 31.1227 10.144 30.169Z" fill="#007FFF"/>
<path opacity="0.4" d="M38.2899 27.933C38.2899 29.1332 37.3156 30.1062 36.1137 30.1062C34.9118 30.1062 33.9375 29.1332 33.9375 27.933C33.9375 26.7328 34.9118 25.7598 36.1137 25.7598C37.3156 25.7598 38.2899 26.7328 38.2899 27.933Z" fill="#007FFF"/>
</svg>
