<svg width="41" height="40" viewBox="0 0 41 40" fill="none" xmlns="http://www.w3.org/2000/svg">
<g opacity="0.2">
<path d="M18.5137 11.9149C18.3918 13.0406 18.2736 14.1317 18.5179 15.1919C14.3111 19.1692 3.20266 29.679 2.1891 30.4628C1.98894 30.6067 1.82131 30.7911 1.69711 31.0041C1.57291 31.217 1.49492 31.4538 1.46821 31.6988C1.38847 32.4349 1.76183 33.1937 2.09968 33.6333C2.60646 34.2927 4.80352 36.8173 5.3007 36.4331C6.77494 35.2787 7.0809 34.9614 7.68459 34.4837C8.59446 33.7675 7.86349 32.0237 8.22147 31.3879C8.57946 30.7521 8.89661 30.6551 9.40144 30.6046C9.90627 30.5542 10.7424 31.004 11.4255 31.0867C12.1433 31.1732 12.5658 30.9124 13.1571 30.4683C13.6332 30.1169 13.9853 29.7783 14.0568 29.1991C14.1585 28.4216 13.1445 27.2692 14.0735 26.5376C15.0026 25.806 16.0676 27.2968 16.9708 27.2895C17.8739 27.2822 19.0905 26.1612 19.2603 25.6452C19.4301 25.1292 18.4517 23.6477 18.7083 22.8958C18.7971 22.6426 19.391 22.0937 19.7987 22.0503C20.2064 22.0068 21.8987 22.8823 22.3065 22.8388C22.8026 22.7875 23.4208 22.3375 23.9107 22.1015C25.19 22.8271 26.3857 23.1932 27.953 23.363C33.8846 24.0056 39.1914 19.9022 39.8087 14.2044C40.4259 8.50664 36.1189 3.38188 30.1873 2.73927C24.2557 2.09667 19.131 6.21715 18.5137 11.9149ZM34.4822 11.615C34.4229 12.163 34.2023 12.6812 33.8485 13.1039C33.4946 13.5266 33.0234 13.8348 32.4943 13.9897C31.9653 14.1446 31.4022 14.1391 30.8763 13.9739C30.3503 13.8088 29.8852 13.4914 29.5397 13.0619C29.1941 12.6324 28.9837 12.1101 28.935 11.561C28.8863 11.0119 29.0016 10.4607 29.2661 9.97706C29.5307 9.49346 29.9328 9.09917 30.4214 8.84406C30.9101 8.58895 31.4634 8.48448 32.0115 8.54385C32.7464 8.62346 33.4196 8.99176 33.8829 9.56771C34.3463 10.1437 34.5619 10.8801 34.4822 11.615Z" fill="#007FFF"/>
</g>
<path d="M30.1269 14.6982C30.1269 16.1658 28.9372 17.3554 27.4697 17.3554C26.0022 17.3554 24.8125 16.1658 24.8125 14.6982C24.8125 13.2307 26.0022 12.041 27.4697 12.041C28.9372 12.041 30.1269 13.2307 30.1269 14.6982Z" fill="#1D1E22"/>
<path d="M16.4121 14.6281C16.3048 15.6188 16.2008 16.579 16.4158 17.512C12.7136 21.0121 2.93781 30.2611 2.04584 30.9509C1.8697 31.0776 1.72218 31.2399 1.61288 31.4273C1.50358 31.6147 1.43494 31.823 1.41144 32.0387C1.34126 32.6864 1.66983 33.3542 1.96715 33.7411C2.41314 34.3214 4.34662 36.5431 4.78416 36.205C6.08154 35.1891 6.3508 34.9099 6.88207 34.4894C7.68279 33.8591 7.0395 32.3246 7.35455 31.7651C7.66959 31.2055 7.94869 31.1201 8.39296 31.0757C8.83723 31.0313 9.57304 31.4272 10.1742 31.5C10.8059 31.5761 11.1777 31.3466 11.6981 30.9558C12.1171 30.6465 12.4269 30.3486 12.4898 29.8388C12.5794 29.1546 11.687 28.1405 12.5046 27.4966C13.3222 26.8527 14.2594 28.1647 15.0542 28.1583C15.849 28.1519 16.9197 27.1654 17.0691 26.7113C17.2185 26.2572 16.3575 24.9534 16.5833 24.2917C16.6615 24.0689 17.1841 23.5858 17.5429 23.5476C17.9017 23.5094 19.391 24.2798 19.7498 24.2416C20.1865 24.1964 20.7305 23.8004 21.1616 23.5927C22.2875 24.2312 23.3397 24.5534 24.719 24.7028C29.939 25.2683 34.6092 21.6572 35.1524 16.643C35.6956 11.6287 31.9052 7.11875 26.6852 6.55324C21.4652 5.98772 16.9553 9.61389 16.4121 14.6281ZM30.4649 14.3642C30.4127 14.8465 30.2186 15.3025 29.9072 15.6744C29.5958 16.0464 29.1811 16.3177 28.7155 16.454C28.2499 16.5903 27.7544 16.5855 27.2916 16.4401C26.8287 16.2948 26.4194 16.0155 26.1153 15.6375C25.8112 15.2595 25.626 14.7999 25.5832 14.3166C25.5403 13.8334 25.6418 13.3483 25.8746 12.9227C26.1074 12.4972 26.4612 12.1502 26.8913 11.9257C27.3213 11.7012 27.8083 11.6092 28.2906 11.6615C28.9373 11.7315 29.5298 12.0556 29.9375 12.5625C30.3453 13.0694 30.535 13.7174 30.4649 14.3642Z" fill="#1D1E22" stroke="#007FFF" stroke-width="1.78709" stroke-linejoin="round"/>
</svg>
