<svg width="41" height="35" viewBox="0 0 41 35" fill="none" xmlns="http://www.w3.org/2000/svg">
<path opacity="0.2" d="M37.7049 30.5867H7.38192C6.50777 30.5867 5.66942 30.2205 5.05131 29.5687C4.43319 28.9168 4.08594 28.0328 4.08594 27.1109V3.47576C4.08594 2.55393 4.43319 1.66986 5.05131 1.01803C5.66942 0.366195 6.50777 0 7.38192 0H13.6352C14.286 1.75899e-05 14.9222 0.203197 15.4637 0.583928L17.7577 2.19668C18.2991 2.57741 18.9353 2.78059 19.5861 2.78061H37.7049C38.5791 2.78061 39.4174 3.1468 40.0355 3.79863C40.6536 4.45047 41.0009 5.33454 41.0009 6.25637V27.1109C41.0009 28.0328 40.6536 28.9168 40.0355 29.5687C39.4174 30.2205 38.5791 30.5867 37.7049 30.5867ZM4.08594 9.73213H41.0009H4.08594Z" fill="#007FFF"/>
<path d="M33.6745 32.6206H5.0842C4.26 32.6206 3.46956 32.2932 2.88677 31.7104C2.30397 31.1276 1.97656 30.3372 1.97656 29.513V8.38107C1.97656 7.55688 2.30397 6.76644 2.88677 6.18364C3.46956 5.60085 4.26 5.27344 5.0842 5.27344H10.9802C11.5938 5.27345 12.1936 5.45511 12.7041 5.79552L14.867 7.23746C15.3776 7.57787 15.9774 7.75953 16.591 7.75955H33.6745C34.4987 7.75955 35.2891 8.08696 35.8719 8.66975C36.4547 9.25255 36.7821 10.043 36.7821 10.8672V29.513C36.7821 30.3372 36.4547 31.1276 35.8719 31.7104C35.2891 32.2932 34.4987 32.6206 33.6745 32.6206ZM1.97656 13.9748H36.7821H1.97656Z" fill="#1D1E22"/>
<path fill-rule="evenodd" clip-rule="evenodd" d="M5.0842 6.27344C4.52522 6.27344 3.98913 6.49549 3.59387 6.89075C3.19862 7.28601 2.97656 7.82209 2.97656 8.38107V12.9748H35.7821V10.8672C35.7821 10.3082 35.56 9.77212 35.1648 9.37686C34.7695 8.9816 34.2334 8.75955 33.6745 8.75955H16.591C15.78 8.75953 14.9871 8.51943 14.3123 8.06951C14.3123 8.0695 14.3124 8.06953 14.3123 8.06951L12.1494 6.62757C11.8032 6.39671 11.3963 6.27345 10.9802 6.27344C10.9802 6.27344 10.9802 6.27344 10.9802 6.27344H5.0842ZM35.7821 14.9748H2.97656V29.513C2.97656 30.072 3.19862 30.6081 3.59387 31.0033C3.98913 31.3986 4.52522 31.6206 5.0842 31.6206H33.6745C34.2334 31.6206 34.7695 31.3986 35.1648 31.0033C35.56 30.6081 35.7821 30.072 35.7821 29.513V14.9748ZM0.976562 29.513C0.976562 30.6024 1.40933 31.6472 2.17966 32.4175C2.94999 33.1879 3.99479 33.6206 5.0842 33.6206H33.6745C34.7639 33.6206 35.8087 33.1879 36.579 32.4175C37.3493 31.6472 37.7821 30.6024 37.7821 29.513V10.8672C37.7821 9.77777 37.3493 8.73298 36.579 7.96265C35.8087 7.19231 34.7639 6.75955 33.6745 6.75955H16.591C16.591 6.75955 16.591 6.75955 16.591 6.75955C16.1749 6.75953 15.768 6.63633 15.4218 6.40546L13.2589 4.96352C13.2589 4.96354 13.2589 4.9635 13.2589 4.96352C12.5841 4.51361 11.7912 4.27346 10.9802 4.27344H5.0842C3.99479 4.27344 2.94999 4.70621 2.17966 5.47654C1.40933 6.24687 0.976562 7.29166 0.976562 8.38107V29.513Z" fill="#007FFF"/>
<path opacity="0.4" d="M26.5957 21.1475C26.5957 21.5115 26.3006 21.8066 25.9365 21.8066C25.5725 21.8066 25.2773 21.5115 25.2773 21.1475C25.2773 20.7834 25.5725 20.4883 25.9365 20.4883C26.3006 20.4883 26.5957 20.7834 26.5957 21.1475Z" fill="#007FFF"/>
<path opacity="0.4" fill-rule="evenodd" clip-rule="evenodd" d="M26.7906 21.1473C26.7906 21.6191 26.4081 22.0016 25.9363 22.0016C25.4645 22.0016 25.082 21.6191 25.082 21.1473C25.082 20.6755 25.4645 20.293 25.9363 20.293C26.4081 20.293 26.7906 20.6755 26.7906 21.1473ZM25.9363 21.8064C26.3004 21.8064 26.5955 21.5113 26.5955 21.1473C26.5955 20.7832 26.3004 20.4881 25.9363 20.4881C25.5723 20.4881 25.2772 20.7832 25.2772 21.1473C25.2772 21.5113 25.5723 21.8064 25.9363 21.8064Z" fill="#007FFF"/>
<path opacity="0.4" d="M8.17382 21.1475C8.17382 21.5115 7.8787 21.8066 7.51465 21.8066C7.15059 21.8066 6.85547 21.5115 6.85547 21.1475C6.85547 20.7834 7.15059 20.4883 7.51465 20.4883C7.8787 20.4883 8.17382 20.7834 8.17382 21.1475Z" fill="#007FFF"/>
<path opacity="0.4" fill-rule="evenodd" clip-rule="evenodd" d="M8.36875 21.1473C8.36875 21.6191 7.98627 22.0016 7.51446 22.0016C7.04264 22.0016 6.66016 21.6191 6.66016 21.1473C6.66016 20.6755 7.04264 20.293 7.51446 20.293C7.98627 20.293 8.36875 20.6755 8.36875 21.1473ZM7.51446 21.8064C7.87851 21.8064 8.17363 21.5113 8.17363 21.1473C8.17363 20.7832 7.87851 20.4881 7.51446 20.4881C7.1504 20.4881 6.85528 20.7832 6.85528 21.1473C6.85528 21.5113 7.1504 21.8064 7.51446 21.8064Z" fill="#007FFF"/>
<path opacity="0.4" d="M10.3613 21.1475C10.3613 21.5115 10.0662 21.8066 9.70215 21.8066C9.33809 21.8066 9.04297 21.5115 9.04297 21.1475C9.04297 20.7834 9.33809 20.4883 9.70215 20.4883C10.0662 20.4883 10.3613 20.7834 10.3613 21.1475Z" fill="#007FFF"/>
<path opacity="0.4" fill-rule="evenodd" clip-rule="evenodd" d="M10.5563 21.1473C10.5563 21.6191 10.1738 22.0016 9.70196 22.0016C9.23014 22.0016 8.84766 21.6191 8.84766 21.1473C8.84766 20.6755 9.23014 20.293 9.70196 20.293C10.1738 20.293 10.5563 20.6755 10.5563 21.1473ZM9.70196 21.8064C10.066 21.8064 10.3611 21.5113 10.3611 21.1473C10.3611 20.7832 10.066 20.4881 9.70196 20.4881C9.3379 20.4881 9.04278 20.7832 9.04278 21.1473C9.04278 21.5113 9.3379 21.8064 9.70196 21.8064Z" fill="#007FFF"/>
<path opacity="0.4" d="M12.5488 21.1475C12.5488 21.5115 12.2537 21.8066 11.8896 21.8066C11.5256 21.8066 11.2305 21.5115 11.2305 21.1475C11.2305 20.7834 11.5256 20.4883 11.8896 20.4883C12.2537 20.4883 12.5488 20.7834 12.5488 21.1475Z" fill="#007FFF"/>
<path opacity="0.4" fill-rule="evenodd" clip-rule="evenodd" d="M12.7438 21.1473C12.7438 21.6191 12.3613 22.0016 11.8895 22.0016C11.4176 22.0016 11.0352 21.6191 11.0352 21.1473C11.0352 20.6755 11.4176 20.293 11.8895 20.293C12.3613 20.293 12.7438 20.6755 12.7438 21.1473ZM11.8895 21.8064C12.2535 21.8064 12.5486 21.5113 12.5486 21.1473C12.5486 20.7832 12.2535 20.4881 11.8895 20.4881C11.5254 20.4881 11.2303 20.7832 11.2303 21.1473C11.2303 21.5113 11.5254 21.8064 11.8895 21.8064Z" fill="#007FFF"/>
<path opacity="0.4" d="M16.4707 21.1475C16.4707 21.5115 16.1756 21.8066 15.8115 21.8066C15.4475 21.8066 15.1523 21.5115 15.1523 21.1475C15.1523 20.7834 15.4475 20.4883 15.8115 20.4883C16.1756 20.4883 16.4707 20.7834 16.4707 21.1475Z" fill="#007FFF"/>
<path opacity="0.4" fill-rule="evenodd" clip-rule="evenodd" d="M16.6656 21.1473C16.6656 21.6191 16.2831 22.0016 15.8113 22.0016C15.3395 22.0016 14.957 21.6191 14.957 21.1473C14.957 20.6755 15.3395 20.293 15.8113 20.293C16.2831 20.293 16.6656 20.6755 16.6656 21.1473ZM15.8113 21.8064C16.1754 21.8064 16.4705 21.5113 16.4705 21.1473C16.4705 20.7832 16.1754 20.4881 15.8113 20.4881C15.4473 20.4881 15.1522 20.7832 15.1522 21.1473C15.1522 21.5113 15.4473 21.8064 15.8113 21.8064Z" fill="#007FFF"/>
<path opacity="0.4" d="M19.6109 20.4883H23.8757C23.9456 20.4883 24.0149 20.5021 24.0795 20.5288C24.1441 20.5556 24.2028 20.5948 24.2523 20.6443C24.3018 20.6937 24.341 20.7525 24.3678 20.8171C24.3945 20.8817 24.4083 20.951 24.4083 21.0209V21.0832C24.4083 21.1531 24.3945 21.2224 24.3678 21.287C24.341 21.3516 24.3018 21.4103 24.2523 21.4598C24.2028 21.5093 24.1441 21.5485 24.0795 21.5753C24.0149 21.602 23.9456 21.6158 23.8757 21.6158H19.6109C19.5409 21.6158 19.4716 21.602 19.407 21.5753C19.3424 21.5485 19.2836 21.5092 19.2342 21.4598C19.1847 21.4103 19.1454 21.3516 19.1187 21.287C19.0919 21.2223 19.0781 21.153 19.0781 21.0831V21.021C19.0781 20.8797 19.1343 20.7442 19.2342 20.6443C19.3341 20.5444 19.4696 20.4883 19.6108 20.4883L19.6109 20.4883Z" fill="#007FFF"/>
<path opacity="0.4" fill-rule="evenodd" clip-rule="evenodd" d="M19.5866 20.293H23.8755C23.9711 20.293 24.0657 20.3118 24.154 20.3484C24.2423 20.3849 24.3225 20.4385 24.3901 20.5061C24.4577 20.5737 24.5113 20.6539 24.5478 20.7422C24.5844 20.8305 24.6032 20.9251 24.6032 21.0207V21.083C24.6032 21.1786 24.5844 21.2732 24.5478 21.3615C24.5113 21.4498 24.4577 21.53 24.3901 21.5976C24.3225 21.6652 24.2423 21.7188 24.154 21.7553C24.0657 21.7919 23.9711 21.8107 23.8755 21.8107H19.6107C19.6107 21.8107 19.6107 21.8107 19.6107 21.8107C19.5151 21.8107 19.4204 21.7919 19.3321 21.7553C19.2438 21.7188 19.1636 21.6651 19.096 21.5976C19.0284 21.53 18.9748 21.4497 18.9382 21.3614C18.9016 21.2731 18.8828 21.1785 18.8828 21.0829V21.0208C18.8828 20.8278 18.9595 20.6426 19.096 20.5062C19.2264 20.3758 19.4011 20.3 19.5848 20.2934L19.5866 20.293ZM19.6106 20.4881C19.4694 20.4881 19.3339 20.5442 19.234 20.6441C19.1341 20.744 19.0779 20.8795 19.0779 21.0208V21.0829C19.0779 21.1529 19.0917 21.2221 19.1185 21.2868C19.1453 21.3514 19.1845 21.4101 19.234 21.4596C19.2834 21.5091 19.3422 21.5483 19.4068 21.5751C19.4714 21.6018 19.5407 21.6156 19.6107 21.6156H23.8755C23.9454 21.6156 24.0147 21.6018 24.0793 21.5751C24.1439 21.5483 24.2026 21.5091 24.2521 21.4596C24.3016 21.4102 24.3408 21.3514 24.3676 21.2868C24.3943 21.2222 24.4081 21.1529 24.4081 21.083V21.0207C24.4081 20.9508 24.3943 20.8815 24.3676 20.8169C24.3408 20.7523 24.3016 20.6935 24.2521 20.6441C24.2026 20.5946 24.1439 20.5554 24.0793 20.5286C24.0147 20.5019 23.9454 20.4881 23.8755 20.4881L19.6106 20.4881Z" fill="#007FFF"/>
<path opacity="0.4" d="M27.9976 20.4883H32.2624C32.3323 20.4883 32.4016 20.5021 32.4662 20.5288C32.5308 20.5556 32.5896 20.5948 32.639 20.6443C32.6885 20.6937 32.7277 20.7525 32.7545 20.8171C32.7812 20.8817 32.795 20.951 32.795 21.0209V21.0832C32.795 21.1531 32.7812 21.2224 32.7545 21.287C32.7277 21.3516 32.6885 21.4103 32.639 21.4598C32.5896 21.5093 32.5308 21.5485 32.4662 21.5753C32.4016 21.602 32.3323 21.6158 32.2624 21.6158H27.9976C27.9276 21.6158 27.8583 21.602 27.7937 21.5753C27.7291 21.5485 27.6703 21.5092 27.6209 21.4598C27.5714 21.4103 27.5322 21.3516 27.5054 21.287C27.4786 21.2223 27.4648 21.153 27.4648 21.0831V21.021C27.4648 20.8797 27.521 20.7442 27.6209 20.6443C27.7208 20.5444 27.8563 20.4883 27.9976 20.4883L27.9976 20.4883Z" fill="#007FFF"/>
<path opacity="0.4" fill-rule="evenodd" clip-rule="evenodd" d="M27.9734 20.293H32.2622C32.3578 20.293 32.4524 20.3118 32.5407 20.3484C32.629 20.3849 32.7092 20.4385 32.7768 20.5061C32.8444 20.5737 32.898 20.6539 32.9345 20.7422C32.9711 20.8305 32.9899 20.9251 32.9899 21.0207V21.083C32.9899 21.1786 32.9711 21.2732 32.9345 21.3615C32.898 21.4498 32.8444 21.53 32.7768 21.5976C32.7092 21.6652 32.629 21.7188 32.5407 21.7553C32.4524 21.7919 32.3578 21.8107 32.2622 21.8107H27.9974C27.9974 21.8107 27.9974 21.8107 27.9974 21.8107C27.9018 21.8107 27.8072 21.7919 27.7189 21.7553C27.6305 21.7188 27.5503 21.6651 27.4827 21.5976C27.4151 21.53 27.3615 21.4497 27.3249 21.3614C27.2884 21.2731 27.2695 21.1785 27.2695 21.0829V21.0208C27.2695 20.8278 27.3462 20.6426 27.4827 20.5062C27.6131 20.3758 27.7879 20.3 27.9715 20.2934L27.9734 20.293ZM27.9974 20.4881C27.8561 20.4881 27.7206 20.5442 27.6207 20.6441C27.5208 20.744 27.4647 20.8795 27.4647 21.0208V21.0829C27.4647 21.1529 27.4784 21.2221 27.5052 21.2868C27.532 21.3514 27.5712 21.4101 27.6207 21.4596C27.6702 21.5091 27.7289 21.5483 27.7935 21.5751C27.8582 21.6018 27.9274 21.6156 27.9974 21.6156H32.2622C32.3321 21.6156 32.4014 21.6018 32.466 21.5751C32.5306 21.5483 32.5894 21.5091 32.6388 21.4596C32.6883 21.4102 32.7275 21.3514 32.7543 21.2868C32.781 21.2222 32.7948 21.1529 32.7948 21.083V21.0207C32.7948 20.9508 32.781 20.8815 32.7543 20.8169C32.7275 20.7523 32.6883 20.6935 32.6388 20.6441C32.5894 20.5946 32.5306 20.5554 32.466 20.5286C32.4014 20.5019 32.3321 20.4881 32.2622 20.4881L27.9974 20.4881Z" fill="#007FFF"/>
<path opacity="0.4" d="M12.1269 25.1025C12.1269 25.4666 11.8318 25.7617 11.4678 25.7617C11.1037 25.7617 10.8086 25.4666 10.8086 25.1025C10.8086 24.7385 11.1037 24.4434 11.4678 24.4434C11.8318 24.4434 12.1269 24.7385 12.1269 25.1025Z" fill="#007FFF"/>
<path opacity="0.4" fill-rule="evenodd" clip-rule="evenodd" d="M12.3258 25.1023C12.3258 25.5742 11.9433 25.9566 11.4715 25.9566C10.9997 25.9566 10.6172 25.5742 10.6172 25.1023C10.6172 24.6305 10.9997 24.248 11.4715 24.248C11.9433 24.248 12.3258 24.6305 12.3258 25.1023ZM11.4715 25.7615C11.8355 25.7615 12.1307 25.4664 12.1307 25.1023C12.1307 24.7383 11.8355 24.4432 11.4715 24.4432C11.1074 24.4432 10.8123 24.7383 10.8123 25.1023C10.8123 25.4664 11.1074 25.7615 11.4715 25.7615Z" fill="#007FFF"/>
<path opacity="0.4" d="M8.17382 25.1025C8.17382 25.4666 7.8787 25.7617 7.51465 25.7617C7.15059 25.7617 6.85547 25.4666 6.85547 25.1025C6.85547 24.7385 7.15059 24.4434 7.51465 24.4434C7.8787 24.4434 8.17382 24.7385 8.17382 25.1025Z" fill="#007FFF"/>
<path opacity="0.4" fill-rule="evenodd" clip-rule="evenodd" d="M8.36875 25.1023C8.36875 25.5742 7.98627 25.9566 7.51446 25.9566C7.04264 25.9566 6.66016 25.5742 6.66016 25.1023C6.66016 24.6305 7.04264 24.248 7.51446 24.248C7.98627 24.248 8.36875 24.6305 8.36875 25.1023ZM7.51446 25.7615C7.87851 25.7615 8.17363 25.4664 8.17363 25.1023C8.17363 24.7383 7.87851 24.4432 7.51446 24.4432C7.1504 24.4432 6.85528 24.7383 6.85528 25.1023C6.85528 25.4664 7.1504 25.7615 7.51446 25.7615Z" fill="#007FFF"/>
<path opacity="0.4" d="M20.5137 25.1025C20.5137 25.4666 20.2185 25.7617 19.8545 25.7617C19.4904 25.7617 19.1953 25.4666 19.1953 25.1025C19.1953 24.7385 19.4904 24.4434 19.8545 24.4434C20.2185 24.4434 20.5137 24.7385 20.5137 25.1025Z" fill="#007FFF"/>
<path opacity="0.4" fill-rule="evenodd" clip-rule="evenodd" d="M20.7086 25.1023C20.7086 25.5742 20.3261 25.9566 19.8543 25.9566C19.3825 25.9566 19 25.5742 19 25.1023C19 24.6305 19.3825 24.248 19.8543 24.248C20.3261 24.248 20.7086 24.6305 20.7086 25.1023ZM19.8543 25.7615C20.2184 25.7615 20.5135 25.4664 20.5135 25.1023C20.5135 24.7383 20.2184 24.4432 19.8543 24.4432C19.4902 24.4432 19.1951 24.7383 19.1951 25.1023C19.1951 25.4664 19.4902 25.7615 19.8543 25.7615Z" fill="#007FFF"/>
<path opacity="0.4" d="M24.4394 25.1025C24.4394 25.4666 24.1443 25.7617 23.7803 25.7617C23.4162 25.7617 23.1211 25.4666 23.1211 25.1025C23.1211 24.7385 23.4162 24.4434 23.7803 24.4434C24.1443 24.4434 24.4394 24.7385 24.4394 25.1025Z" fill="#007FFF"/>
<path opacity="0.4" fill-rule="evenodd" clip-rule="evenodd" d="M24.6344 25.1023C24.6344 25.5742 24.2519 25.9566 23.7801 25.9566C23.3083 25.9566 22.9258 25.5742 22.9258 25.1023C22.9258 24.6305 23.3083 24.248 23.7801 24.248C24.2519 24.248 24.6344 24.6305 24.6344 25.1023ZM23.7801 25.7615C24.1441 25.7615 24.4393 25.4664 24.4393 25.1023C24.4393 24.7383 24.1441 24.4432 23.7801 24.4432C23.416 24.4432 23.1209 24.7383 23.1209 25.1023C23.1209 25.4664 23.416 25.7615 23.7801 25.7615Z" fill="#007FFF"/>
<path opacity="0.4" d="M13.5288 24.4434H17.7936C17.8636 24.4434 17.9328 24.4571 17.9975 24.4839C18.0621 24.5107 18.1208 24.5499 18.1703 24.5994C18.2197 24.6488 18.259 24.7075 18.2857 24.7722C18.3125 24.8368 18.3263 24.906 18.3263 24.976V25.0383C18.3263 25.1082 18.3125 25.1775 18.2857 25.2421C18.259 25.3067 18.2197 25.3654 18.1703 25.4149C18.1208 25.4643 18.0621 25.5036 17.9975 25.5303C17.9328 25.5571 17.8636 25.5709 17.7936 25.5709H13.5288C13.4589 25.5709 13.3896 25.5571 13.325 25.5303C13.2603 25.5036 13.2016 25.4643 13.1521 25.4149C13.1027 25.3654 13.0634 25.3067 13.0366 25.242C13.0099 25.1774 12.9961 25.1081 12.9961 25.0382V24.9761C12.9961 24.8348 13.0522 24.6993 13.1521 24.5994C13.252 24.4995 13.3875 24.4434 13.5288 24.4434L13.5288 24.4434Z" fill="#007FFF"/>
<path opacity="0.4" fill-rule="evenodd" clip-rule="evenodd" d="M13.5046 24.248H17.7935C17.889 24.248 17.9837 24.2669 18.0719 24.3034C18.1602 24.34 18.2405 24.3936 18.308 24.4612C18.3756 24.5288 18.4292 24.609 18.4658 24.6973C18.5024 24.7856 18.5212 24.8802 18.5212 24.9758V25.0381C18.5212 25.1336 18.5024 25.2283 18.4658 25.3166C18.4292 25.4049 18.3756 25.4851 18.308 25.5527C18.2405 25.6202 18.1602 25.6738 18.0719 25.7104C17.9837 25.747 17.889 25.7658 17.7935 25.7658H13.5286C13.5286 25.7658 13.5286 25.7658 13.5286 25.7658C13.4331 25.7658 13.3384 25.747 13.2501 25.7104C13.1618 25.6738 13.0816 25.6202 13.014 25.5526C12.9464 25.4851 12.8928 25.4048 12.8562 25.3165C12.8196 25.2282 12.8008 25.1336 12.8008 25.038V24.9759C12.8008 24.7829 12.8775 24.5977 13.014 24.4612C13.1443 24.3308 13.3191 24.255 13.5028 24.2485L13.5046 24.248ZM13.5286 24.4432C13.3873 24.4432 13.2518 24.4993 13.1519 24.5992C13.052 24.6991 12.9959 24.8346 12.9959 24.9759V25.038C12.9959 25.1079 13.0097 25.1772 13.0365 25.2418C13.0632 25.3065 13.1025 25.3652 13.1519 25.4147C13.2014 25.4641 13.2601 25.5034 13.3248 25.5301C13.3894 25.5569 13.4587 25.5707 13.5286 25.5707H17.7935C17.8634 25.5707 17.9327 25.5569 17.9973 25.5301C18.0619 25.5034 18.1206 25.4642 18.1701 25.4147C18.2195 25.3652 18.2588 25.3065 18.2855 25.2419C18.3123 25.1773 18.3261 25.108 18.3261 25.0381V24.9758C18.3261 24.9058 18.3123 24.8366 18.2855 24.772C18.2588 24.7073 18.2195 24.6486 18.1701 24.5992C18.1206 24.5497 18.0619 24.5105 17.9973 24.4837C17.9327 24.4569 17.8634 24.4432 17.7935 24.4432L13.5286 24.4432Z" fill="#007FFF"/>
<path opacity="0.4" d="M27.5796 24.4434H31.8444C31.9144 24.4434 31.9836 24.4571 32.0483 24.4839C32.1129 24.5107 32.1716 24.5499 32.221 24.5994C32.2705 24.6488 32.3097 24.7075 32.3365 24.7722C32.3633 24.8368 32.377 24.906 32.377 24.976V25.0383C32.377 25.1082 32.3633 25.1775 32.3365 25.2421C32.3097 25.3067 32.2705 25.3654 32.221 25.4149C32.1716 25.4643 32.1129 25.5036 32.0483 25.5303C31.9836 25.5571 31.9144 25.5709 31.8444 25.5709H27.5796C27.5096 25.5709 27.4404 25.5571 27.3757 25.5303C27.3111 25.5036 27.2524 25.4643 27.2029 25.4149C27.1534 25.3654 27.1142 25.3067 27.0874 25.242C27.0607 25.1774 27.0469 25.1081 27.0469 25.0382V24.9761C27.0469 24.8348 27.103 24.6993 27.2029 24.5994C27.3028 24.4995 27.4383 24.4434 27.5796 24.4434L27.5796 24.4434Z" fill="#007FFF"/>
<path opacity="0.4" fill-rule="evenodd" clip-rule="evenodd" d="M27.5554 24.248H31.8442C31.9398 24.248 32.0344 24.2669 32.1227 24.3034C32.211 24.34 32.2912 24.3936 32.3588 24.4612C32.4264 24.5288 32.48 24.609 32.5166 24.6973C32.5531 24.7856 32.572 24.8802 32.572 24.9758V25.0381C32.572 25.1336 32.5531 25.2283 32.5166 25.3166C32.48 25.4049 32.4264 25.4851 32.3588 25.5527C32.2912 25.6202 32.211 25.6738 32.1227 25.7104C32.0344 25.747 31.9398 25.7658 31.8442 25.7658H27.5794C27.5794 25.7658 27.5794 25.7658 27.5794 25.7658C27.4838 25.7658 27.3892 25.747 27.3009 25.7104C27.2126 25.6738 27.1323 25.6202 27.0647 25.5526C26.9972 25.4851 26.9435 25.4048 26.907 25.3165C26.8704 25.2282 26.8516 25.1336 26.8516 25.038V24.9759C26.8516 24.7829 26.9282 24.5977 27.0647 24.4612C27.1951 24.3308 27.3699 24.255 27.5535 24.2485L27.5554 24.248ZM27.5794 24.4432C27.4381 24.4432 27.3026 24.4993 27.2027 24.5992C27.1028 24.6991 27.0467 24.8346 27.0467 24.9759V25.038C27.0467 25.1079 27.0605 25.1772 27.0872 25.2418C27.114 25.3065 27.1533 25.3652 27.2027 25.4147C27.2522 25.4641 27.3109 25.5034 27.3755 25.5301C27.4402 25.5569 27.5095 25.5707 27.5794 25.5707H31.8442C31.9142 25.5707 31.9834 25.5569 32.0481 25.5301C32.1127 25.5034 32.1714 25.4642 32.2209 25.4147C32.2703 25.3652 32.3095 25.3065 32.3363 25.2419C32.3631 25.1773 32.3768 25.108 32.3768 25.0381V24.9758C32.3768 24.9058 32.3631 24.8366 32.3363 24.772C32.3095 24.7073 32.2703 24.6486 32.2209 24.5992C32.1714 24.5497 32.1127 24.5105 32.0481 24.4837C31.9834 24.4569 31.9142 24.4432 31.8442 24.4432L27.5794 24.4432Z" fill="#007FFF"/>
</svg>
