<svg width="168" height="168" viewBox="0 0 168 168" fill="none" xmlns="http://www.w3.org/2000/svg">
<path d="M84 168C130.392 168 168 130.392 168 84C168 37.6081 130.392 0 84 0C37.6081 0 0 37.6081 0 84C0 130.392 37.6081 168 84 168Z" fill="#25282D"/>
<path d="M153.854 130.18C148.511 120.592 150.197 94.1258 139.097 72.392C130.16 54.9136 114.164 40.9898 98.8996 41.1828H98.6862C97.556 41.3291 96.508 41.8514 95.7106 42.6655C95.6003 42.781 95.4643 42.8688 95.3138 42.9219C95.1632 42.9749 95.0023 42.9918 94.844 42.971C94.6857 42.9502 94.5346 42.8924 94.4028 42.8023C94.271 42.7122 94.1624 42.5922 94.0857 42.4523C90.7342 36.704 87.535 32.601 80.4766 31.5955C80.3018 31.5736 80.1242 31.5954 79.9598 31.659C79.7954 31.7225 79.6494 31.8258 79.5347 31.9597C79.42 32.0935 79.3401 32.2536 79.3025 32.4258C79.2648 32.598 79.2705 32.7768 79.3188 32.9462C79.5423 33.6876 79.7454 34.3884 79.9282 34.9774C79.9935 35.1604 80.005 35.3583 79.9613 35.5477C79.9175 35.737 79.8205 35.9098 79.6815 36.0455C79.5425 36.1813 79.3674 36.2744 79.1771 36.3137C78.9868 36.353 78.7894 36.3369 78.608 36.2673L68.8886 33.2205C68.6966 33.1462 68.4864 33.1321 68.2861 33.1799C68.0858 33.2278 67.9049 33.3355 67.7672 33.4886C67.6295 33.6417 67.5416 33.8331 67.5151 34.0373C67.4887 34.2416 67.525 34.449 67.6191 34.6321C69.1121 38.0852 70.2395 40.7867 71.4988 43.4272C71.9393 44.2879 72.4667 45.1013 73.0729 45.8545L45.855 24.598C45.6637 24.4001 45.4016 24.2862 45.1264 24.2814C44.8511 24.2766 44.5853 24.3814 44.3874 24.5727C44.1894 24.7639 44.0755 25.0259 44.0707 25.3012C44.066 25.5764 44.1707 25.8422 44.3619 26.0402L63.3334 51.9887C63.4943 52.1966 63.5684 52.4588 63.54 52.7202C63.5116 52.9816 63.3829 53.2218 63.181 53.3902C61.6677 54.7207 58.103 57.869 55.6655 59.8494C54.4164 60.865 52.6188 62.6525 52.8219 63.8204C53.9899 71.5999 49.1962 76.4849 44.9814 81.8777C39.6292 88.7432 34.6325 95.9234 29.5139 102.992C27.2085 106.171 27.8484 108.903 31.1897 110.782C35.3664 113.273 39.6983 115.495 44.1589 117.434C49.9376 119.76 54.2234 116.865 55.6859 110.782C56.0817 108.916 56.7671 107.124 57.7171 105.47C62.9271 97.0101 70.3715 95.7203 78.222 98.3609L78.3844 98.432C81.3297 99.8538 82.9546 101.479 83.7062 103.134C85.3514 106.79 82.8125 110.812 80.4563 114.184L79.4407 115.646C73.6858 122.448 69.571 130.481 67.4138 139.125C65.2567 147.77 65.115 156.794 66.9996 165.502C67.0391 165.708 67.1413 165.896 67.2922 166.042C67.4431 166.187 67.6354 166.283 67.8425 166.315C84.0454 169.423 100.803 167.754 116.074 161.51C131.345 155.265 144.471 144.715 153.854 131.144C153.934 130.996 153.975 130.83 153.975 130.662C153.975 130.494 153.934 130.328 153.854 130.18Z" fill="#72A2FF"/>
<path d="M121.364 64.3086C114.661 83.4018 95.2425 96.8077 83.6952 103.277C85.3404 106.933 82.8015 110.955 80.4453 114.327C120.968 88.8556 119.465 79.2988 121.364 64.3086Z" fill="#5185EB"/>
<path d="M76.007 56.0106C75.1234 56.1833 72.3305 58.7121 69.9134 60.4589C69.2091 60.9699 68.7167 61.7216 68.5295 62.5714C68.3423 63.4212 68.4734 64.3101 68.8978 65.0698C70.6049 65.0745 72.2757 64.5764 73.7016 63.6377C74.768 62.9236 75.6364 61.9513 76.2259 60.8113C76.8155 59.6713 77.1071 58.4006 77.0734 57.1176C76.9922 56.4778 76.7078 55.8786 76.007 56.0106Z" fill="white"/>
</svg>
