<svg width="313" height="53" viewBox="0 0 313 53" fill="none" xmlns="http://www.w3.org/2000/svg">
<rect y="0.920898" width="177.189" height="51.1473" rx="7.69911" fill="#3D4047"/>
<g filter="url(#filter0_i_7623_5718)">
<circle cx="25.5745" cy="26.4944" r="14.6135" fill="#3D4047"/>
</g>
<path d="M48.6797 25.4457C48.6797 25.4938 48.7278 25.5419 48.7278 25.59L51.23 28.2366C51.3263 28.3328 51.4706 28.3328 51.5669 28.2847L54.0691 25.6382C54.1172 25.59 54.1172 25.5419 54.1172 25.4938C54.1172 25.3494 54.0209 25.2532 53.8766 25.2532C53.8285 25.2532 53.7803 25.2532 53.7322 25.3013L51.4225 27.7554L49.0646 25.3013C49.0165 25.2532 48.9684 25.2051 48.9203 25.2051C48.7759 25.2051 48.6797 25.3013 48.6797 25.4457Z" fill="#E6E6E6"/>
<path d="M125.828 28.4293C125.828 28.3812 125.78 28.3331 125.78 28.285L123.278 25.6384C123.182 25.5422 123.037 25.5422 122.941 25.5903L120.439 28.2368C120.391 28.285 120.391 28.3331 120.391 28.3812C120.391 28.5256 120.487 28.6218 120.631 28.6218C120.679 28.6218 120.727 28.6218 120.776 28.5737L123.085 26.1196L125.443 28.5737C125.491 28.6218 125.539 28.6699 125.588 28.6699C125.732 28.6699 125.828 28.5737 125.828 28.4293Z" fill="#E6E6E6"/>
<g clip-path="url(#clip0_7623_5718)">
<path fill-rule="evenodd" clip-rule="evenodd" d="M76.9902 14.1064C76.2815 14.1064 75.707 14.6809 75.707 15.3896V20.5224C75.707 21.2311 76.2815 21.8056 76.9902 21.8056H82.123C82.8316 21.8056 83.4061 21.2311 83.4061 20.5224V15.3896C83.4061 14.6809 82.8316 14.1064 82.123 14.1064H76.9902ZM79.9844 15.3905V17.5288H82.123V18.3843H79.9844V20.5232H79.129V18.3843H76.9902V17.5288H79.129V15.3905H79.9844Z" fill="#E6E6E6"/>
</g>
<path d="M74.3343 39.461C75.625 39.461 76.4082 38.5368 76.4082 37.0958V37.0895C76.4082 35.6422 75.6187 34.7274 74.3343 34.7274C73.0561 34.7274 72.2604 35.639 72.2604 37.0895V37.0958C72.2604 38.54 73.0373 39.461 74.3343 39.461ZM74.3343 38.941C73.3944 38.941 72.8368 38.2142 72.8368 37.0958V37.0895C72.8368 35.9617 73.4132 35.2474 74.3343 35.2474C75.2584 35.2474 75.8317 35.9617 75.8317 37.0895V37.0958C75.8317 38.2142 75.2616 38.941 74.3343 38.941ZM77.3423 40.4823H77.8874V38.8219H77.9376C78.1224 39.1822 78.5265 39.414 78.9902 39.414C79.8486 39.414 80.4062 38.7279 80.4062 37.6691V37.6628C80.4062 36.6102 79.8454 35.9178 78.9902 35.9178C78.5203 35.9178 78.1443 36.1403 77.9376 36.5162H77.8874V35.9774H77.3423V40.4823ZM78.8649 38.9316C78.2508 38.9316 77.8749 38.4491 77.8749 37.6691V37.6628C77.8749 36.8827 78.2508 36.4003 78.8649 36.4003C79.482 36.4003 79.8486 36.8765 79.8486 37.6628V37.6691C79.8486 38.4554 79.482 38.9316 78.8649 38.9316ZM82.6624 39.414C83.4581 39.414 83.9406 38.9629 84.0565 38.5055L84.0627 38.4804H83.5176L83.5051 38.5086C83.4143 38.7123 83.1323 38.9284 82.6749 38.9284C82.0734 38.9284 81.6881 38.5212 81.6724 37.8226H84.1035V37.6095C84.1035 36.6008 83.5458 35.9178 82.6279 35.9178C81.71 35.9178 81.1148 36.6321 81.1148 37.6753V37.6785C81.1148 38.7373 81.6975 39.414 82.6624 39.414ZM82.6248 36.4034C83.1229 36.4034 83.4926 36.7198 83.549 37.3871H81.6818C81.7414 36.7449 82.1236 36.4034 82.6248 36.4034ZM84.975 39.3545H85.5201V37.3558C85.5201 36.7637 85.8616 36.4003 86.4004 36.4003C86.9392 36.4003 87.1899 36.6916 87.1899 37.2994V39.3545H87.735V37.1678C87.735 36.3658 87.312 35.9178 86.5539 35.9178C86.0558 35.9178 85.7394 36.1277 85.5702 36.4849H85.5201V35.9774H84.975V39.3545ZM91.5049 39.414C91.9591 39.414 92.3131 39.2167 92.5262 38.8564H92.5763V39.3545H93.1214V37.0425C93.1214 36.3408 92.6609 35.9178 91.837 35.9178C91.1164 35.9178 90.6026 36.275 90.5149 36.8044L90.5118 36.8232H91.0569L91.06 36.8138C91.1477 36.5507 91.414 36.4003 91.8182 36.4003C92.3225 36.4003 92.5763 36.6258 92.5763 37.0425V37.3495L91.6083 37.409C90.8219 37.456 90.3771 37.8038 90.3771 38.4053V38.4115C90.3771 39.0256 90.8627 39.414 91.5049 39.414ZM90.9347 38.399V38.3927C90.9347 38.0575 91.1603 37.8758 91.6741 37.8445L92.5763 37.7881V38.0951C92.5763 38.5776 92.1722 38.941 91.6177 38.941C91.2261 38.941 90.9347 38.7405 90.9347 38.399ZM94.1433 40.4823H94.6884V38.8219H94.7385C94.9233 39.1822 95.3275 39.414 95.7911 39.414C96.6495 39.414 97.2071 38.7279 97.2071 37.6691V37.6628C97.2071 36.6102 96.6464 35.9178 95.7911 35.9178C95.3212 35.9178 94.9453 36.1403 94.7385 36.5162H94.6884V35.9774H94.1433V40.4823ZM95.6658 38.9316C95.0518 38.9316 94.6759 38.4491 94.6759 37.6691V37.6628C94.6759 36.8827 95.0518 36.4003 95.6658 36.4003C96.283 36.4003 96.6495 36.8765 96.6495 37.6628V37.6691C96.6495 38.4554 96.283 38.9316 95.6658 38.9316ZM98.0849 40.4823H98.63V38.8219H98.6801C98.865 39.1822 99.2691 39.414 99.7328 39.414C100.591 39.414 101.149 38.7279 101.149 37.6691V37.6628C101.149 36.6102 100.588 35.9178 99.7328 35.9178C99.2628 35.9178 98.8869 36.1403 98.6801 36.5162H98.63V35.9774H98.0849V40.4823ZM99.6074 38.9316C98.9934 38.9316 98.6175 38.4491 98.6175 37.6691V37.6628C98.6175 36.8827 98.9934 36.4003 99.6074 36.4003C100.225 36.4003 100.591 36.8765 100.591 37.6628V37.6691C100.591 38.4554 100.225 38.9316 99.6074 38.9316Z" fill="#E6E6E6"/>
<path d="M98.0363 16.712L97.4353 16.6356C97.3857 16.4831 97.3247 16.336 97.2534 16.1963L97.6245 15.7184C97.7748 15.525 97.7572 15.252 97.5855 15.0858L97.082 14.5823C96.9142 14.4091 96.6412 14.3918 96.4475 14.5417L95.9702 14.9129C95.8305 14.8416 95.6835 14.7805 95.5307 14.731L95.4543 14.131C95.4255 13.8902 95.2212 13.709 94.9792 13.709H94.2632C94.0212 13.709 93.8169 13.8902 93.7881 14.13L93.7117 14.731C93.5589 14.7805 93.4119 14.8413 93.2722 14.9129L92.7946 14.5417C92.6015 14.3918 92.3285 14.4091 92.162 14.5807L91.6585 15.0839C91.4852 15.252 91.4677 15.525 91.6179 15.7188L91.989 16.1963C91.9174 16.336 91.8567 16.4831 91.8071 16.6356L91.2071 16.712C90.9664 16.7407 90.7852 16.945 90.7852 17.187V17.9031C90.7852 18.1451 90.9664 18.3493 91.2062 18.3781L91.8071 18.4545C91.8567 18.607 91.9178 18.754 91.989 18.8937L91.6179 19.3716C91.4677 19.565 91.4852 19.838 91.6569 20.0043L92.1604 20.5077C92.3285 20.6807 92.6012 20.698 92.7949 20.548L93.2725 20.1769C93.4122 20.2485 93.5593 20.3096 93.7117 20.3588L93.7881 20.9585C93.8169 21.1998 94.0212 21.3811 94.2632 21.3811H94.9792C95.2212 21.3811 95.4255 21.1998 95.4543 20.9601L95.5307 20.3591C95.6832 20.3096 95.8302 20.2485 95.9699 20.1772L96.4478 20.5483C96.6412 20.6986 96.9142 20.681 97.0804 20.5093L97.5839 20.0059C97.7572 19.8377 97.7748 19.565 97.6245 19.3713L97.2534 18.8937C97.325 18.754 97.386 18.607 97.4353 18.4545L98.035 18.3781C98.2757 18.3493 98.4569 18.1451 98.4569 17.9031V17.187C98.4573 16.945 98.276 16.7407 98.0363 16.712ZM94.6212 19.1434C93.7399 19.1434 93.0229 18.4264 93.0229 17.545C93.0229 16.6637 93.7399 15.9467 94.6212 15.9467C95.5025 15.9467 96.2196 16.6637 96.2196 17.545C96.2196 18.4264 95.5025 19.1434 94.6212 19.1434Z" fill="#E6E6E6"/>
<g filter="url(#filter1_d_7623_5718)">
<path d="M135 26.5673C135 12.7796 146.177 1.60254 159.965 1.60254L175.187 1.60254V51.5321H159.965C146.177 51.5321 135 40.355 135 26.5673Z" fill="#C7C7C7"/>
</g>
<path d="M135 26.5668C135 12.4429 146.45 0.993164 160.574 0.993164L304.49 0.993164C308.742 0.993164 312.189 4.44017 312.189 8.69227V44.4414C312.189 48.6935 308.742 52.1405 304.49 52.1405L160.574 52.1405C146.45 52.1405 135 40.6908 135 26.5668Z" fill="#C7C7C7"/>
<g filter="url(#filter2_i_7623_5718)">
<ellipse cx="160.574" cy="26.5676" rx="14.6135" ry="14.6135" fill="#C7C7C7"/>
</g>
<defs>
<filter id="filter0_i_7623_5718" x="10.9609" y="11.8809" width="29.2266" height="29.2266" filterUnits="userSpaceOnUse" color-interpolation-filters="sRGB">
<feFlood flood-opacity="0" result="BackgroundImageFix"/>
<feBlend mode="normal" in="SourceGraphic" in2="BackgroundImageFix" result="shape"/>
<feColorMatrix in="SourceAlpha" type="matrix" values="0 0 0 0 0 0 0 0 0 0 0 0 0 0 0 0 0 0 127 0" result="hardAlpha"/>
<feOffset/>
<feGaussianBlur stdDeviation="1.28318"/>
<feComposite in2="hardAlpha" operator="arithmetic" k2="-1" k3="1"/>
<feColorMatrix type="matrix" values="0 0 0 0 0 0 0 0 0 0 0 0 0 0 0 0 0 0 1 0"/>
<feBlend mode="normal" in2="shape" result="effect1_innerShadow_7623_5718"/>
</filter>
<filter id="filter1_d_7623_5718" x="132.434" y="0.319354" width="42.7539" height="52.4961" filterUnits="userSpaceOnUse" color-interpolation-filters="sRGB">
<feFlood flood-opacity="0" result="BackgroundImageFix"/>
<feColorMatrix in="SourceAlpha" type="matrix" values="0 0 0 0 0 0 0 0 0 0 0 0 0 0 0 0 0 0 127 0" result="hardAlpha"/>
<feOffset dx="-1.28318"/>
<feGaussianBlur stdDeviation="0.641592"/>
<feColorMatrix type="matrix" values="0 0 0 0 0 0 0 0 0 0 0 0 0 0 0 0 0 0 1 0"/>
<feBlend mode="normal" in2="BackgroundImageFix" result="effect1_dropShadow_7623_5718"/>
<feBlend mode="normal" in="SourceGraphic" in2="effect1_dropShadow_7623_5718" result="shape"/>
</filter>
<filter id="filter2_i_7623_5718" x="145.961" y="11.9541" width="29.2266" height="29.2266" filterUnits="userSpaceOnUse" color-interpolation-filters="sRGB">
<feFlood flood-opacity="0" result="BackgroundImageFix"/>
<feBlend mode="normal" in="SourceGraphic" in2="BackgroundImageFix" result="shape"/>
<feColorMatrix in="SourceAlpha" type="matrix" values="0 0 0 0 0 0 0 0 0 0 0 0 0 0 0 0 0 0 127 0" result="hardAlpha"/>
<feOffset/>
<feGaussianBlur stdDeviation="1.28318"/>
<feComposite in2="hardAlpha" operator="arithmetic" k2="-1" k3="1"/>
<feColorMatrix type="matrix" values="0 0 0 0 0 0 0 0 0 0 0 0 0 0 0 0 0 0 0.25 0"/>
<feBlend mode="normal" in2="shape" result="effect1_innerShadow_7623_5718"/>
</filter>
<clipPath id="clip0_7623_5718">
<rect width="7.69911" height="7.69911" fill="white" transform="matrix(-1 0 0 1 83.4062 14.1064)"/>
</clipPath>
</defs>
</svg>
