<svg width="313" height="54" viewBox="0 0 313 54" fill="none" xmlns="http://www.w3.org/2000/svg">
<rect y="1.39844" width="177.189" height="51.1473" rx="7.69911" fill="#3D4047"/>
<g filter="url(#filter0_i_7623_26666)">
<circle cx="25.5745" cy="26.9719" r="14.6135" fill="#3D4047"/>
</g>
<path d="M48.6797 25.5853C48.6797 25.6334 48.7278 25.6816 48.7278 25.7297L51.23 28.3763C51.3263 28.4725 51.4706 28.4725 51.5669 28.4244L54.0691 25.7778C54.1172 25.7297 54.1172 25.6816 54.1172 25.6334C54.1172 25.4891 54.0209 25.3928 53.8766 25.3928C53.8285 25.3928 53.7803 25.3928 53.7322 25.441L51.4225 27.8951L49.0646 25.441C49.0165 25.3928 48.9684 25.3447 48.9203 25.3447C48.7759 25.3447 48.6797 25.441 48.6797 25.5853Z" fill="#E6E6E6"/>
<path d="M125.828 28.568C125.828 28.5199 125.78 28.4718 125.78 28.4236L123.278 25.7771C123.182 25.6808 123.037 25.6808 122.941 25.729L120.439 28.3755C120.391 28.4236 120.391 28.4718 120.391 28.5199C120.391 28.6642 120.487 28.7605 120.631 28.7605C120.679 28.7605 120.727 28.7605 120.776 28.7124L123.085 26.2583L125.443 28.7124C125.491 28.7605 125.539 28.8086 125.588 28.8086C125.732 28.8086 125.828 28.7124 125.828 28.568Z" fill="#E6E6E6"/>
<g clip-path="url(#clip0_7623_26666)">
<path d="M85.0881 18.4155H85.3287V17.4531C85.3287 16.3916 86.1919 15.5283 87.2535 15.5283C88.315 15.5283 89.1782 16.3916 89.1782 17.4531V18.4155H89.4188C89.8166 18.4155 90.1406 18.7391 90.1406 19.1373V22.5056C90.1406 22.9038 89.8166 23.2274 89.4188 23.2274H85.0881C84.6903 23.2274 84.3663 22.9038 84.3663 22.5056V19.1373C84.3663 18.7391 84.6903 18.4155 85.0881 18.4155ZM88.5366 17.4531C88.5366 16.7454 87.9612 16.1699 87.2535 16.1699C86.5458 16.1699 85.9703 16.7454 85.9703 17.4531V18.4155H88.5366V17.4531Z" fill="#E6E6E6"/>
</g>
<path d="M63.4514 30.5107H66.2521V30.0032H64.0153V28.4494H66.1362V27.9481H64.0153V26.4977H66.2521V25.9901H63.4514V30.5107ZM67.2302 30.5107H67.7753V28.512C67.7753 27.9199 68.1167 27.5565 68.6556 27.5565C69.1944 27.5565 69.445 27.8479 69.445 28.4556V30.5107H69.9901V28.3241C69.9901 27.5221 69.5672 27.0741 68.8091 27.0741C68.311 27.0741 67.9946 27.284 67.8254 27.6411H67.7753V27.1336H67.2302V30.5107ZM72.2025 30.5358C72.309 30.5358 72.4124 30.5233 72.5189 30.5045V30.0408C72.4186 30.0502 72.3654 30.0534 72.2683 30.0534C71.9174 30.0534 71.7796 29.8936 71.7796 29.4957V27.5847H72.5189V27.1336H71.7796V26.2596H71.2157V27.1336H70.6831V27.5847H71.2157V29.6336C71.2157 30.2789 71.507 30.5358 72.2025 30.5358ZM74.6874 30.5703C75.4831 30.5703 75.9655 30.1191 76.0815 29.6618L76.0877 29.6367H75.5426L75.5301 29.6649C75.4392 29.8685 75.1573 30.0847 74.6999 30.0847C74.0984 30.0847 73.7131 29.6774 73.6974 28.9788H76.1284V28.7658C76.1284 27.757 75.5708 27.0741 74.6529 27.0741C73.735 27.0741 73.1398 27.7884 73.1398 28.8316V28.8347C73.1398 29.8936 73.7225 30.5703 74.6874 30.5703ZM74.6498 27.5597C75.1479 27.5597 75.5176 27.8761 75.5739 28.5434H73.7068C73.7663 27.9011 74.1485 27.5597 74.6498 27.5597ZM77 30.5107H77.5451V28.418C77.5451 27.9231 77.9147 27.5941 78.4348 27.5941C78.5538 27.5941 78.6572 27.6067 78.77 27.6255V27.096C78.7167 27.0866 78.6008 27.0741 78.4974 27.0741C78.04 27.0741 77.7236 27.2809 77.5952 27.6349H77.5451V27.1336H77V30.5107ZM81.3682 30.5107H81.9321V28.8974H83.0725C83.9215 28.8974 84.523 28.299 84.523 27.4406V27.4344C84.523 26.576 83.9215 25.9901 83.0725 25.9901H81.3682V30.5107ZM82.9284 26.4914C83.5737 26.4914 83.9465 26.8454 83.9465 27.4406V27.4469C83.9465 28.0421 83.5737 28.3961 82.9284 28.3961H81.9321V26.4914H82.9284ZM85.4728 30.5107H86.0367V25.9901H85.4728V30.5107ZM87.2152 30.5107H87.7728V27.0052H87.823L90.2759 30.5107H90.8242V25.9901H90.2665V29.5083H90.2164L87.7634 25.9901H87.2152V30.5107ZM95.653 30.6173C96.6147 30.6173 97.329 30.0816 97.4794 29.2545V29.2482H96.9092L96.903 29.2545C96.762 29.7745 96.2827 30.0972 95.653 30.0972C94.7821 30.0972 94.237 29.3861 94.237 28.2551V28.2489C94.237 27.1179 94.7821 26.4037 95.6498 26.4037C96.2733 26.4037 96.7557 26.7702 96.9061 27.3498L96.9092 27.356H97.4763L97.4794 27.3498C97.3447 26.482 96.6022 25.8836 95.6498 25.8836C94.4218 25.8836 93.6574 26.7921 93.6574 28.2489V28.2551C93.6574 29.7088 94.4249 30.6173 95.653 30.6173ZM99.77 30.5703C100.732 30.5703 101.327 29.9061 101.327 28.8253V28.819C101.327 27.7351 100.732 27.0741 99.77 27.0741C98.8083 27.0741 98.2131 27.7351 98.2131 28.819V28.8253C98.2131 29.9061 98.8083 30.5703 99.77 30.5703ZM99.77 30.0878C99.131 30.0878 98.7707 29.621 98.7707 28.8253V28.819C98.7707 28.0202 99.131 27.5565 99.77 27.5565C100.409 27.5565 100.769 28.0202 100.769 28.819V28.8253C100.769 29.621 100.409 30.0878 99.77 30.0878ZM103.445 30.5703C103.915 30.5703 104.291 30.3478 104.498 29.9719H104.548V30.5107H105.093V25.7928H104.548V27.6662H104.498C104.313 27.3059 103.909 27.0741 103.445 27.0741C102.587 27.0741 102.029 27.7602 102.029 28.819V28.8253C102.029 29.8779 102.59 30.5703 103.445 30.5703ZM103.571 30.0878C102.954 30.0878 102.587 29.6116 102.587 28.8253V28.819C102.587 28.0327 102.954 27.5565 103.571 27.5565C104.185 27.5565 104.561 28.039 104.561 28.819V28.8253C104.561 29.6054 104.185 30.0878 103.571 30.0878ZM107.544 30.5703C108.339 30.5703 108.822 30.1191 108.938 29.6618L108.944 29.6367H108.399L108.386 29.6649C108.296 29.8685 108.014 30.0847 107.556 30.0847C106.955 30.0847 106.569 29.6774 106.554 28.9788H108.985V28.7658C108.985 27.757 108.427 27.0741 107.509 27.0741C106.591 27.0741 105.996 27.7884 105.996 28.8316V28.8347C105.996 29.8936 106.579 30.5703 107.544 30.5703ZM107.506 27.5597C108.004 27.5597 108.374 27.8761 108.43 28.5434H106.563C106.623 27.9011 107.005 27.5597 107.506 27.5597Z" fill="#E6E6E6"/>
<rect x="62.875" y="38.626" width="3.84955" height="0.513274" fill="#E6E6E6"/>
<rect x="69.2891" y="38.626" width="3.84955" height="0.513274" fill="#E6E6E6"/>
<rect x="75.707" y="38.626" width="3.84955" height="0.513274" fill="#E6E6E6"/>
<rect x="82.1211" y="38.626" width="3.84955" height="0.513274" fill="#E6E6E6"/>
<rect x="88.5391" y="38.626" width="3.84955" height="0.513274" fill="#E6E6E6"/>
<rect x="94.9531" y="38.626" width="3.84955" height="0.513274" fill="#E6E6E6"/>
<rect x="101.371" y="38.626" width="3.84955" height="0.513274" fill="#E6E6E6"/>
<rect x="107.785" y="38.626" width="3.84955" height="0.513274" fill="#E6E6E6"/>
<g filter="url(#filter1_d_7623_26666)">
<path d="M135 27.0448C135 13.2572 146.177 2.08008 159.965 2.08008L175.187 2.08008L175.187 52.0096L159.965 52.0096C146.177 52.0096 135 40.8325 135 27.0448Z" fill="#C7C7C7"/>
</g>
<path d="M135 27.0444C135 12.9204 146.45 1.4707 160.574 1.4707L304.49 1.4707C308.742 1.4707 312.189 4.91771 312.189 9.16981V44.9189C312.189 49.171 308.742 52.618 304.49 52.618L160.574 52.618C146.45 52.618 135 41.1683 135 27.0444Z" fill="#C7C7C7"/>
<g filter="url(#filter2_i_7623_26666)">
<ellipse cx="160.574" cy="27.0452" rx="14.6135" ry="14.6135" fill="#C7C7C7"/>
</g>
<defs>
<filter id="filter0_i_7623_26666" x="10.9609" y="12.3584" width="29.2266" height="29.2266" filterUnits="userSpaceOnUse" color-interpolation-filters="sRGB">
<feFlood flood-opacity="0" result="BackgroundImageFix"/>
<feBlend mode="normal" in="SourceGraphic" in2="BackgroundImageFix" result="shape"/>
<feColorMatrix in="SourceAlpha" type="matrix" values="0 0 0 0 0 0 0 0 0 0 0 0 0 0 0 0 0 0 127 0" result="hardAlpha"/>
<feOffset/>
<feGaussianBlur stdDeviation="1.28318"/>
<feComposite in2="hardAlpha" operator="arithmetic" k2="-1" k3="1"/>
<feColorMatrix type="matrix" values="0 0 0 0 0 0 0 0 0 0 0 0 0 0 0 0 0 0 1 0"/>
<feBlend mode="normal" in2="shape" result="effect1_innerShadow_7623_26666"/>
</filter>
<filter id="filter1_d_7623_26666" x="132.434" y="0.796893" width="42.7539" height="52.4961" filterUnits="userSpaceOnUse" color-interpolation-filters="sRGB">
<feFlood flood-opacity="0" result="BackgroundImageFix"/>
<feColorMatrix in="SourceAlpha" type="matrix" values="0 0 0 0 0 0 0 0 0 0 0 0 0 0 0 0 0 0 127 0" result="hardAlpha"/>
<feOffset dx="-1.28318"/>
<feGaussianBlur stdDeviation="0.641592"/>
<feColorMatrix type="matrix" values="0 0 0 0 0 0 0 0 0 0 0 0 0 0 0 0 0 0 1 0"/>
<feBlend mode="normal" in2="BackgroundImageFix" result="effect1_dropShadow_7623_26666"/>
<feBlend mode="normal" in="SourceGraphic" in2="effect1_dropShadow_7623_26666" result="shape"/>
</filter>
<filter id="filter2_i_7623_26666" x="145.961" y="12.4316" width="29.2266" height="29.2266" filterUnits="userSpaceOnUse" color-interpolation-filters="sRGB">
<feFlood flood-opacity="0" result="BackgroundImageFix"/>
<feBlend mode="normal" in="SourceGraphic" in2="BackgroundImageFix" result="shape"/>
<feColorMatrix in="SourceAlpha" type="matrix" values="0 0 0 0 0 0 0 0 0 0 0 0 0 0 0 0 0 0 127 0" result="hardAlpha"/>
<feOffset/>
<feGaussianBlur stdDeviation="1.28318"/>
<feComposite in2="hardAlpha" operator="arithmetic" k2="-1" k3="1"/>
<feColorMatrix type="matrix" values="0 0 0 0 0 0 0 0 0 0 0 0 0 0 0 0 0 0 0.25 0"/>
<feBlend mode="normal" in2="shape" result="effect1_innerShadow_7623_26666"/>
</filter>
<clipPath id="clip0_7623_26666">
<rect width="7.69911" height="7.69911" fill="white" transform="matrix(-1 0 0 1 91.1055 15.5283)"/>
</clipPath>
</defs>
</svg>
