<svg width="313" height="54" viewBox="0 0 313 54" fill="none" xmlns="http://www.w3.org/2000/svg">
<rect y="1.5166" width="177.189" height="51.1473" rx="7.69911" fill="#3D4047"/>
<g filter="url(#filter0_i_7623_27579)">
<circle cx="25.5745" cy="27.0901" r="14.6135" fill="#3D4047"/>
</g>
<path fill-rule="evenodd" clip-rule="evenodd" d="M67.0007 20.6553H71.674C72.1078 20.6702 72.5201 20.8479 72.829 21.1529C73.1378 21.458 73.3205 21.868 73.3408 22.3017V27.0261C73.3408 27.2408 73.259 27.3124 73.0443 27.3124H67.0109C66.6837 27.3124 66.6837 27.292 66.6837 26.9852V20.9723C66.6837 20.7371 66.7553 20.6553 67.0007 20.6553ZM65.0063 23.2937H62.9099C62.883 23.2996 62.8552 23.3001 62.8281 23.295C62.801 23.2899 62.7753 23.2794 62.7524 23.2642C62.7294 23.2489 62.7098 23.2291 62.6947 23.2061C62.6796 23.183 62.6694 23.1572 62.6645 23.1301C62.6591 23.1189 62.6562 23.1067 62.6562 23.0943C62.6562 23.0819 62.6591 23.0696 62.6645 23.0585V22.1688C62.7006 21.7709 62.8784 21.3992 63.1656 21.1214C63.4528 20.8436 63.8302 20.6782 64.2291 20.6554H65.0267C65.2005 20.6554 65.2721 20.7372 65.2721 20.9724V23.0176C65.2721 23.2017 65.2005 23.2937 65.0063 23.2937ZM65.0058 24.674H62.9606C62.7254 24.674 62.6641 24.7456 62.6641 24.9399V26.9851C62.6641 27.1692 62.7254 27.2612 62.9197 27.2612H65.0263C65.2103 27.2612 65.2717 27.1794 65.2717 27.0055V24.8785C65.2717 24.7456 65.1899 24.674 65.0058 24.674ZM66.9803 28.6932H69.0255C69.0591 28.6874 69.0936 28.6884 69.1268 28.6961C69.1601 28.7038 69.1914 28.7181 69.2191 28.7381C69.2467 28.7581 69.2701 28.7834 69.2878 28.8126C69.3054 28.8418 69.3171 28.8742 69.3221 28.908C69.3322 28.9378 69.3322 28.9702 69.3221 29V31.0452C69.3343 31.1102 69.3209 31.1774 69.2847 31.2326C69.2485 31.2879 69.1922 31.3271 69.1278 31.3418H66.9803C66.7656 31.3418 66.7042 31.2497 66.7042 31.0452V30.0226C66.7042 29.9105 66.7065 29.7837 66.7087 29.6565C66.7133 29.4008 66.7179 29.1434 66.7042 29C66.6838 28.7853 66.7656 28.6932 66.9803 28.6932ZM73.0851 28.6939H70.9785C70.9452 28.6837 70.9096 28.6837 70.8763 28.6939C70.846 28.7011 70.8174 28.7142 70.7922 28.7326C70.767 28.7509 70.7456 28.7741 70.7295 28.8007C70.7133 28.8274 70.7026 28.8569 70.6979 28.8878C70.6933 28.9186 70.6948 28.95 70.7024 28.9802V30.6573C70.7024 30.7508 70.7009 30.8322 70.6995 30.9031C70.6952 31.1315 70.693 31.2502 70.7512 31.3107C70.8144 31.3762 70.9486 31.3732 71.2283 31.367C71.2936 31.3655 71.3668 31.3639 71.4489 31.3629C71.881 31.3954 72.3099 31.2673 72.6534 31.0031C72.9968 30.7389 73.2307 30.3572 73.3101 29.9313C73.34 29.5911 73.34 29.2489 73.3101 28.9087C73.3408 28.7246 73.218 28.6939 73.0851 28.6939ZM62.8286 28.6928H65.0067C65.201 28.6928 65.2726 28.8359 65.3033 29.0507V31.0959C65.3131 31.1552 65.3009 31.2161 65.2689 31.267C65.2368 31.3179 65.1872 31.3553 65.1294 31.372H65.0374C64.6953 31.3848 64.3529 31.3642 64.0148 31.3106C63.6545 31.2347 63.3284 31.0443 63.0852 30.7678C62.8419 30.4914 62.6945 30.1438 62.665 29.7767V28.928C62.656 28.8751 62.6681 28.8209 62.6987 28.7769C62.7293 28.733 62.7759 28.7027 62.8286 28.6928Z" fill="#E6E6E6"/>
<path fill-rule="evenodd" clip-rule="evenodd" d="M96.0022 21.3105H96.4112C96.7006 21.3105 96.6995 21.3601 96.691 21.7483C96.6893 21.8265 96.6873 21.9184 96.6873 22.0264V30.2992C96.6873 30.698 96.6873 30.698 96.4112 30.698H96.1044L96.0717 30.6987C95.8429 30.7037 95.731 30.7061 95.6762 30.6514C95.6238 30.599 95.6238 30.4942 95.6238 30.289V30.0844C95.6238 30.0609 95.6315 30.0364 95.6393 30.0114C95.6554 29.9603 95.6719 29.9076 95.6238 29.8595C95.3728 30.1825 95.0462 30.4389 94.6728 30.606C94.0097 30.8962 93.2595 30.9165 92.5817 30.6625C91.9039 30.4086 91.3517 29.9004 91.0426 29.2459C90.7039 28.5843 90.5472 27.8445 90.5885 27.1024C90.6298 26.3603 90.8677 25.6425 91.2778 25.0226C91.4774 24.7172 91.7353 24.4542 92.0368 24.2487C92.3383 24.0433 92.6774 23.8993 93.0346 23.8252C93.3918 23.7511 93.7602 23.7483 94.1185 23.8169C94.4769 23.8855 94.8181 24.0242 95.1227 24.225L95.2864 24.3374C95.3662 24.405 95.4424 24.4799 95.5193 24.5556L95.5194 24.5557L95.5194 24.5557C95.5705 24.606 95.6219 24.6566 95.6749 24.7056C95.6994 24.6186 95.6994 24.5266 95.6749 24.4397V21.6582C95.6749 21.3105 95.7056 21.3105 96.0022 21.3105ZM94.4569 29.6977C94.7562 29.5571 95.0112 29.3372 95.1943 29.0618C95.5045 28.5324 95.6662 27.9291 95.6626 27.3155C95.659 26.7019 95.4902 26.1006 95.1739 25.5748C94.8984 25.1723 94.4744 24.8956 93.9951 24.8055C93.5157 24.7154 93.0202 24.8192 92.6174 25.0942C92.4643 25.2049 92.3267 25.3355 92.2083 25.4827C91.8032 26.0262 91.6104 26.699 91.6663 27.3746C91.6361 27.8465 91.7277 28.3184 91.9322 28.7448C92.0579 29.0616 92.2725 29.3353 92.55 29.533C92.8276 29.7308 93.1564 29.8441 93.4968 29.8595C93.8256 29.8942 94.1577 29.8383 94.4569 29.6977ZM83.6895 29.696C84.0474 29.696 84.0474 29.7165 84.0474 29.9926L84.0167 30.0437C84.0156 30.1278 84.0157 30.2011 84.0159 30.265V30.2651V30.2651V30.2651C84.0163 30.4857 84.0165 30.5941 83.9624 30.6463C83.9101 30.6969 83.8069 30.6948 83.604 30.6908H83.6039C83.5379 30.6895 83.4613 30.6879 83.3725 30.6879H79.0674C78.87 30.6879 78.7785 30.6879 78.736 30.6423C78.6992 30.6027 78.6992 30.529 78.6992 30.3914V21.7095C78.6992 21.3311 78.7094 21.3311 79.0776 21.3311H79.4253C79.7525 21.3311 79.7525 21.3618 79.7525 21.6788V29.4097C79.7525 29.6244 79.8343 29.696 80.049 29.696H83.6895ZM102.546 23.9382H103.058C103.383 23.9382 103.382 23.9925 103.376 24.3665C103.374 24.4516 103.373 24.5532 103.375 24.6745V30.4931C103.392 31.2095 103.14 31.9064 102.669 32.4463C102.386 32.7535 102.036 32.9914 101.646 33.1416C101.071 33.3678 100.454 33.4684 99.837 33.4367C99.2197 33.4049 98.6164 33.2416 98.0674 32.9576C97.8935 32.8757 97.8628 32.7735 97.9549 32.6099C98.0232 32.4852 98.0813 32.3553 98.1287 32.2213C98.2003 31.9861 98.3332 31.9759 98.5378 32.0679C99.2479 32.4172 100.056 32.5145 100.828 32.344C101.237 32.2772 101.608 32.064 101.871 31.7442C102.135 31.4244 102.273 31.0197 102.26 30.6056V29.7773C102.136 29.9256 101.995 30.0594 101.841 30.1761C101.259 30.5573 100.558 30.7135 99.8692 30.6157C99.1804 30.5178 98.5508 30.1725 98.098 29.6443C97.588 28.9541 97.3026 28.1236 97.2807 27.2657C97.2587 26.4077 97.5012 25.5638 97.9753 24.8483C98.2987 24.4258 98.7365 24.1048 99.2367 23.9236C99.737 23.7423 100.279 23.7084 100.798 23.8257C101.36 23.8922 101.878 24.1656 102.25 24.5927C102.302 24.4668 102.32 24.329 102.301 24.1939C102.301 24.02 102.373 23.9382 102.546 23.9382ZM101.851 28.9899C102.013 28.7828 102.125 28.5414 102.178 28.2843C102.321 27.6809 102.342 27.0551 102.24 26.4436C102.241 26.2203 102.198 25.9989 102.113 25.7924C102.028 25.5858 101.903 25.3981 101.745 25.2402C101.588 25.0823 101.4 24.9573 101.193 24.8725C100.987 24.7877 100.765 24.7447 100.542 24.7461C100.164 24.6893 99.7778 24.7587 99.4432 24.9436C99.1086 25.1284 98.8443 25.4184 98.6912 25.7687C98.5074 26.2046 98.4269 26.677 98.456 27.1492V27.4764C98.4516 27.8326 98.5296 28.185 98.6839 28.5061C98.8382 28.8272 99.0647 29.1082 99.3456 29.3273C99.5319 29.4707 99.7447 29.5758 99.9718 29.6365C100.199 29.6972 100.436 29.7123 100.669 29.6809C100.902 29.6495 101.126 29.5723 101.329 29.4537C101.532 29.3351 101.709 29.1774 101.851 28.9899ZM89.9278 26.1767C89.8237 25.5365 89.5194 24.9458 89.0586 24.4894C88.5597 24.0688 87.9397 23.8183 87.2887 23.7741C86.6377 23.73 85.9896 23.8946 85.4385 24.2439C84.9767 24.5232 84.5905 24.9118 84.3141 25.3755C84.0377 25.8391 83.8796 26.3636 83.8535 26.9027C83.7449 27.7504 83.9405 28.6093 84.4057 29.3263C84.9368 30.0905 85.7403 30.6223 86.6513 30.8125C87.5623 31.0027 88.5115 30.8368 89.304 30.3489C89.9687 29.9398 89.9687 29.9091 89.529 29.3263C89.4369 29.1831 89.3551 29.1626 89.2119 29.2751C88.766 29.6034 88.2395 29.8048 87.6883 29.858H87.5349C86.9101 29.912 86.2893 29.7164 85.8084 29.314C85.3274 28.9115 85.0253 28.3351 84.9681 27.7106C84.9681 27.4856 85.0193 27.4447 85.2136 27.4447H89.6721C89.8971 27.4447 89.9891 27.3629 89.9891 27.1379V26.7902C89.9865 26.5843 89.966 26.379 89.9278 26.1767ZM88.6597 26.5448H85.2136C85.0704 26.5448 84.9886 26.5448 85.0295 26.3505C85.0473 26.2661 85.0496 26.2319 85.0507 26.2151C85.0513 26.2073 85.0516 26.2033 85.053 26.1998C85.0546 26.1961 85.0574 26.1929 85.0633 26.1864C85.0674 26.1818 85.073 26.1756 85.0806 26.1664C85.2497 25.6382 85.6212 25.1984 86.1137 24.9435C86.6063 24.6886 87.1798 24.6393 87.7087 24.8064C88.0423 24.9139 88.3344 25.122 88.5449 25.4021C88.7555 25.6822 88.8742 26.0207 88.8847 26.3709C88.9041 26.5459 88.7851 26.5453 88.6767 26.5448L88.6597 26.5448ZM113.918 23.8872C113.631 23.8592 113.342 23.8941 113.07 23.9895C112.515 24.2198 112.052 24.6257 111.751 25.145V24.3883C111.751 24.1543 111.751 24.0411 111.694 23.9868C111.641 23.9359 111.539 23.9366 111.34 23.9379C111.306 23.9381 111.269 23.9383 111.229 23.9383H111.076C110.718 23.9383 110.707 23.9383 110.697 24.3167V29.9615C110.697 30.5955 110.697 30.6773 110.984 30.6875H111.485C111.771 30.6875 111.781 30.6364 111.781 30.3091V27.814C111.789 27.3745 111.855 26.9379 111.976 26.5153C112.066 26.0645 112.314 25.6608 112.676 25.3775C113.038 25.0942 113.49 24.95 113.949 24.9712C114.123 24.9712 114.184 24.9098 114.184 24.736C114.174 24.5486 114.174 24.3609 114.184 24.1735V24.102C114.177 24.0386 114.145 23.9808 114.095 23.9407C114.045 23.9006 113.982 23.8814 113.918 23.8872ZM107.356 23.7813C107.967 23.8104 108.556 24.0177 109.05 24.3776C109.644 24.8576 110.026 25.5516 110.113 26.3103C110.152 26.6501 110.152 26.9931 110.113 27.3329C110.122 27.3965 110.106 27.4611 110.068 27.5127C110.029 27.5643 109.972 27.5989 109.909 27.609H105.389C105.133 27.609 105.133 27.6601 105.133 27.8953C105.213 28.5378 105.544 29.1226 106.054 29.5214C106.563 29.9202 107.211 30.1003 107.853 30.0223C108.193 29.9803 108.52 29.8689 108.815 29.6951C109.025 29.6006 109.222 29.4766 109.398 29.327C109.5 29.1838 109.674 29.327 109.674 29.327C109.891 29.6787 110.014 29.8211 109.991 29.9342C109.969 30.0447 109.808 30.1272 109.459 30.3496C108.664 30.8525 107.704 31.0269 106.783 30.8361C105.861 30.6454 105.05 30.1043 104.52 29.327C103.993 28.502 103.813 27.5029 104.018 26.546C104.223 25.5891 104.796 24.7513 105.614 24.214C106.14 23.9026 106.746 23.7522 107.356 23.7813ZM105.45 26.5557H108.825C108.917 26.5557 108.989 26.5353 108.907 26.4125C108.904 26.0812 108.807 25.7575 108.625 25.4801C108.444 25.2027 108.187 24.9833 107.884 24.848C107.359 24.6606 106.782 24.6888 106.278 24.9265C105.773 25.1642 105.384 25.5919 105.195 26.116V26.2183C105.144 26.3862 105.118 26.4706 105.15 26.513C105.181 26.5557 105.271 26.5557 105.45 26.5557Z" fill="#E6E6E6"/>
<g filter="url(#filter1_d_7623_27579)">
<path d="M135 27.162C135 13.3744 146.177 2.19726 159.965 2.19726L175.187 2.19726L175.187 52.1268L159.965 52.1268C146.177 52.1268 135 40.9497 135 27.162Z" fill="#C7C7C7"/>
</g>
<path d="M135 27.1615C135 13.0376 146.45 1.58789 160.574 1.58789L304.49 1.58789C308.742 1.58789 312.189 5.0349 312.189 9.287V45.0361C312.189 49.2882 308.742 52.7352 304.49 52.7352L160.574 52.7352C146.45 52.7352 135 41.2855 135 27.1615Z" fill="#C7C7C7"/>
<g filter="url(#filter2_i_7623_27579)">
<ellipse cx="160.574" cy="27.1623" rx="14.6135" ry="14.6135" fill="#C7C7C7"/>
</g>
<defs>
<filter id="filter0_i_7623_27579" x="10.9609" y="12.4766" width="29.2266" height="29.2266" filterUnits="userSpaceOnUse" color-interpolation-filters="sRGB">
<feFlood flood-opacity="0" result="BackgroundImageFix"/>
<feBlend mode="normal" in="SourceGraphic" in2="BackgroundImageFix" result="shape"/>
<feColorMatrix in="SourceAlpha" type="matrix" values="0 0 0 0 0 0 0 0 0 0 0 0 0 0 0 0 0 0 127 0" result="hardAlpha"/>
<feOffset/>
<feGaussianBlur stdDeviation="1.28318"/>
<feComposite in2="hardAlpha" operator="arithmetic" k2="-1" k3="1"/>
<feColorMatrix type="matrix" values="0 0 0 0 0 0 0 0 0 0 0 0 0 0 0 0 0 0 1 0"/>
<feBlend mode="normal" in2="shape" result="effect1_innerShadow_7623_27579"/>
</filter>
<filter id="filter1_d_7623_27579" x="132.434" y="0.914081" width="42.7539" height="52.4961" filterUnits="userSpaceOnUse" color-interpolation-filters="sRGB">
<feFlood flood-opacity="0" result="BackgroundImageFix"/>
<feColorMatrix in="SourceAlpha" type="matrix" values="0 0 0 0 0 0 0 0 0 0 0 0 0 0 0 0 0 0 127 0" result="hardAlpha"/>
<feOffset dx="-1.28318"/>
<feGaussianBlur stdDeviation="0.641592"/>
<feColorMatrix type="matrix" values="0 0 0 0 0 0 0 0 0 0 0 0 0 0 0 0 0 0 1 0"/>
<feBlend mode="normal" in2="BackgroundImageFix" result="effect1_dropShadow_7623_27579"/>
<feBlend mode="normal" in="SourceGraphic" in2="effect1_dropShadow_7623_27579" result="shape"/>
</filter>
<filter id="filter2_i_7623_27579" x="145.961" y="12.5488" width="29.2266" height="29.2266" filterUnits="userSpaceOnUse" color-interpolation-filters="sRGB">
<feFlood flood-opacity="0" result="BackgroundImageFix"/>
<feBlend mode="normal" in="SourceGraphic" in2="BackgroundImageFix" result="shape"/>
<feColorMatrix in="SourceAlpha" type="matrix" values="0 0 0 0 0 0 0 0 0 0 0 0 0 0 0 0 0 0 127 0" result="hardAlpha"/>
<feOffset/>
<feGaussianBlur stdDeviation="1.28318"/>
<feComposite in2="hardAlpha" operator="arithmetic" k2="-1" k3="1"/>
<feColorMatrix type="matrix" values="0 0 0 0 0 0 0 0 0 0 0 0 0 0 0 0 0 0 0.25 0"/>
<feBlend mode="normal" in2="shape" result="effect1_innerShadow_7623_27579"/>
</filter>
</defs>
</svg>
