<svg width="46" height="46" viewBox="0 0 46 46" fill="none" xmlns="http://www.w3.org/2000/svg">
<path opacity="0.2" d="M39.7049 36.5867H9.38192C8.50777 36.5867 7.66942 36.2205 7.05131 35.5687C6.43319 34.9168 6.08594 34.0328 6.08594 33.1109V9.47576C6.08594 8.55393 6.43319 7.66986 7.05131 7.01803C7.66942 6.3662 8.50777 6 9.38192 6H15.6352C16.286 6.00002 16.9222 6.2032 17.4637 6.58393L19.7577 8.19668C20.2991 8.57741 20.9353 8.78059 21.5861 8.78061H39.7049C40.5791 8.78061 41.4174 9.1468 42.0355 9.79863C42.6536 10.4505 43.0009 11.3345 43.0009 12.2564V33.1109C43.0009 34.0328 42.6536 34.9168 42.0355 35.5687C41.4174 36.2205 40.5791 36.5867 39.7049 36.5867ZM6.08594 15.7321H43.0009H6.08594Z" fill="#007FFF"/>
<path d="M35.6745 38.6206H7.0842C6.26 38.6206 5.46956 38.2932 4.88677 37.7104C4.30397 37.1276 3.97656 36.3372 3.97656 35.513V14.3811C3.97656 13.5569 4.30397 12.7664 4.88677 12.1836C5.46956 11.6008 6.26 11.2734 7.0842 11.2734H12.9802C13.5938 11.2735 14.1936 11.4551 14.7041 11.7955L16.867 13.2375C17.3776 13.5779 17.9774 13.7595 18.591 13.7595H35.6745C36.4987 13.7595 37.2891 14.087 37.8719 14.6698C38.4547 15.2525 38.7821 16.043 38.7821 16.8672V35.513C38.7821 36.3372 38.4547 37.1276 37.8719 37.7104C37.2891 38.2932 36.4987 38.6206 35.6745 38.6206ZM3.97656 19.9748H38.7821H3.97656Z" fill="#1D1E22"/>
<path fill-rule="evenodd" clip-rule="evenodd" d="M7.0842 12.2734C6.52522 12.2734 5.98913 12.4955 5.59387 12.8907C5.19862 13.286 4.97656 13.8221 4.97656 14.3811V18.9748H37.7821V16.8672C37.7821 16.3082 37.56 15.7721 37.1648 15.3769C36.7695 14.9816 36.2334 14.7595 35.6745 14.7595H18.591C17.78 14.7595 16.9871 14.5194 16.3123 14.0695C16.3123 14.0695 16.3124 14.0695 16.3123 14.0695L14.1494 12.6276C13.8032 12.3967 13.3963 12.2735 12.9802 12.2734C12.9802 12.2734 12.9802 12.2734 12.9802 12.2734H7.0842ZM37.7821 20.9748H4.97656V35.513C4.97656 36.072 5.19862 36.6081 5.59387 37.0033C5.98913 37.3986 6.52522 37.6206 7.0842 37.6206H35.6745C36.2334 37.6206 36.7695 37.3986 37.1648 37.0033C37.56 36.6081 37.7821 36.072 37.7821 35.513V20.9748ZM2.97656 35.513C2.97656 36.6024 3.40933 37.6472 4.17966 38.4175C4.94999 39.1879 5.99479 39.6206 7.0842 39.6206H35.6745C36.7639 39.6206 37.8087 39.1879 38.579 38.4175C39.3493 37.6472 39.7821 36.6024 39.7821 35.513V16.8672C39.7821 15.7778 39.3493 14.733 38.579 13.9626C37.8087 13.1923 36.7639 12.7595 35.6745 12.7595H18.591C18.591 12.7595 18.591 12.7595 18.591 12.7595C18.1749 12.7595 17.768 12.6363 17.4218 12.4055L15.2589 10.9635C15.2589 10.9635 15.2589 10.9635 15.2589 10.9635C14.5841 10.5136 13.7912 10.2735 12.9802 10.2734H7.0842C5.99479 10.2734 4.94999 10.7062 4.17966 11.4765C3.40933 12.2469 2.97656 13.2917 2.97656 14.3811V35.513Z" fill="#007FFF"/>
<path opacity="0.4" d="M28.5957 27.1475C28.5957 27.5115 28.3006 27.8066 27.9365 27.8066C27.5725 27.8066 27.2773 27.5115 27.2773 27.1475C27.2773 26.7834 27.5725 26.4883 27.9365 26.4883C28.3006 26.4883 28.5957 26.7834 28.5957 27.1475Z" fill="#007FFF"/>
<path opacity="0.4" fill-rule="evenodd" clip-rule="evenodd" d="M28.7906 27.1473C28.7906 27.6191 28.4081 28.0016 27.9363 28.0016C27.4645 28.0016 27.082 27.6191 27.082 27.1473C27.082 26.6755 27.4645 26.293 27.9363 26.293C28.4081 26.293 28.7906 26.6755 28.7906 27.1473ZM27.9363 27.8064C28.3004 27.8064 28.5955 27.5113 28.5955 27.1473C28.5955 26.7832 28.3004 26.4881 27.9363 26.4881C27.5723 26.4881 27.2772 26.7832 27.2772 27.1473C27.2772 27.5113 27.5723 27.8064 27.9363 27.8064Z" fill="#007FFF"/>
<path opacity="0.4" d="M10.1738 27.1475C10.1738 27.5115 9.8787 27.8066 9.51465 27.8066C9.15059 27.8066 8.85547 27.5115 8.85547 27.1475C8.85547 26.7834 9.15059 26.4883 9.51465 26.4883C9.8787 26.4883 10.1738 26.7834 10.1738 27.1475Z" fill="#007FFF"/>
<path opacity="0.4" fill-rule="evenodd" clip-rule="evenodd" d="M10.3688 27.1473C10.3688 27.6191 9.98627 28.0016 9.51446 28.0016C9.04264 28.0016 8.66016 27.6191 8.66016 27.1473C8.66016 26.6755 9.04264 26.293 9.51446 26.293C9.98627 26.293 10.3688 26.6755 10.3688 27.1473ZM9.51446 27.8064C9.87851 27.8064 10.1736 27.5113 10.1736 27.1473C10.1736 26.7832 9.87851 26.4881 9.51446 26.4881C9.1504 26.4881 8.85528 26.7832 8.85528 27.1473C8.85528 27.5113 9.1504 27.8064 9.51446 27.8064Z" fill="#007FFF"/>
<path opacity="0.4" d="M12.3613 27.1475C12.3613 27.5115 12.0662 27.8066 11.7021 27.8066C11.3381 27.8066 11.043 27.5115 11.043 27.1475C11.043 26.7834 11.3381 26.4883 11.7021 26.4883C12.0662 26.4883 12.3613 26.7834 12.3613 27.1475Z" fill="#007FFF"/>
<path opacity="0.4" fill-rule="evenodd" clip-rule="evenodd" d="M12.5563 27.1473C12.5563 27.6191 12.1738 28.0016 11.702 28.0016C11.2301 28.0016 10.8477 27.6191 10.8477 27.1473C10.8477 26.6755 11.2301 26.293 11.702 26.293C12.1738 26.293 12.5563 26.6755 12.5563 27.1473ZM11.702 27.8064C12.066 27.8064 12.3611 27.5113 12.3611 27.1473C12.3611 26.7832 12.066 26.4881 11.702 26.4881C11.3379 26.4881 11.0428 26.7832 11.0428 27.1473C11.0428 27.5113 11.3379 27.8064 11.702 27.8064Z" fill="#007FFF"/>
<path opacity="0.4" d="M14.5488 27.1475C14.5488 27.5115 14.2537 27.8066 13.8896 27.8066C13.5256 27.8066 13.2305 27.5115 13.2305 27.1475C13.2305 26.7834 13.5256 26.4883 13.8896 26.4883C14.2537 26.4883 14.5488 26.7834 14.5488 27.1475Z" fill="#007FFF"/>
<path opacity="0.4" fill-rule="evenodd" clip-rule="evenodd" d="M14.7438 27.1473C14.7438 27.6191 14.3613 28.0016 13.8895 28.0016C13.4176 28.0016 13.0352 27.6191 13.0352 27.1473C13.0352 26.6755 13.4176 26.293 13.8895 26.293C14.3613 26.293 14.7438 26.6755 14.7438 27.1473ZM13.8895 27.8064C14.2535 27.8064 14.5486 27.5113 14.5486 27.1473C14.5486 26.7832 14.2535 26.4881 13.8895 26.4881C13.5254 26.4881 13.2303 26.7832 13.2303 27.1473C13.2303 27.5113 13.5254 27.8064 13.8895 27.8064Z" fill="#007FFF"/>
<path opacity="0.4" d="M18.4707 27.1475C18.4707 27.5115 18.1756 27.8066 17.8115 27.8066C17.4475 27.8066 17.1523 27.5115 17.1523 27.1475C17.1523 26.7834 17.4475 26.4883 17.8115 26.4883C18.1756 26.4883 18.4707 26.7834 18.4707 27.1475Z" fill="#007FFF"/>
<path opacity="0.4" fill-rule="evenodd" clip-rule="evenodd" d="M18.6656 27.1473C18.6656 27.6191 18.2831 28.0016 17.8113 28.0016C17.3395 28.0016 16.957 27.6191 16.957 27.1473C16.957 26.6755 17.3395 26.293 17.8113 26.293C18.2831 26.293 18.6656 26.6755 18.6656 27.1473ZM17.8113 27.8064C18.1754 27.8064 18.4705 27.5113 18.4705 27.1473C18.4705 26.7832 18.1754 26.4881 17.8113 26.4881C17.4473 26.4881 17.1522 26.7832 17.1522 27.1473C17.1522 27.5113 17.4473 27.8064 17.8113 27.8064Z" fill="#007FFF"/>
<path opacity="0.4" d="M21.6109 26.4883H25.8757C25.9456 26.4883 26.0149 26.5021 26.0795 26.5288C26.1441 26.5556 26.2028 26.5948 26.2523 26.6443C26.3018 26.6937 26.341 26.7525 26.3678 26.8171C26.3945 26.8817 26.4083 26.951 26.4083 27.0209V27.0832C26.4083 27.1531 26.3945 27.2224 26.3678 27.287C26.341 27.3516 26.3018 27.4103 26.2523 27.4598C26.2028 27.5093 26.1441 27.5485 26.0795 27.5753C26.0149 27.602 25.9456 27.6158 25.8757 27.6158H21.6109C21.5409 27.6158 21.4716 27.602 21.407 27.5753C21.3424 27.5485 21.2836 27.5092 21.2342 27.4598C21.1847 27.4103 21.1454 27.3516 21.1187 27.287C21.0919 27.2223 21.0781 27.153 21.0781 27.0831V27.021C21.0781 26.8797 21.1343 26.7442 21.2342 26.6443C21.3341 26.5444 21.4696 26.4883 21.6108 26.4883L21.6109 26.4883Z" fill="#007FFF"/>
<path opacity="0.4" fill-rule="evenodd" clip-rule="evenodd" d="M21.5866 26.293H25.8755C25.9711 26.293 26.0657 26.3118 26.154 26.3484C26.2423 26.3849 26.3225 26.4385 26.3901 26.5061C26.4577 26.5737 26.5113 26.6539 26.5478 26.7422C26.5844 26.8305 26.6032 26.9251 26.6032 27.0207V27.083C26.6032 27.1786 26.5844 27.2732 26.5478 27.3615C26.5113 27.4498 26.4577 27.53 26.3901 27.5976C26.3225 27.6652 26.2423 27.7188 26.154 27.7553C26.0657 27.7919 25.9711 27.8107 25.8755 27.8107H21.6107C21.6107 27.8107 21.6107 27.8107 21.6107 27.8107C21.5151 27.8107 21.4204 27.7919 21.3321 27.7553C21.2438 27.7188 21.1636 27.6651 21.096 27.5976C21.0284 27.53 20.9748 27.4497 20.9382 27.3614C20.9016 27.2731 20.8828 27.1785 20.8828 27.0829V27.0208C20.8828 26.8278 20.9595 26.6426 21.096 26.5062C21.2264 26.3758 21.4011 26.3 21.5848 26.2934L21.5866 26.293ZM21.6106 26.4881C21.4694 26.4881 21.3339 26.5442 21.234 26.6441C21.1341 26.744 21.0779 26.8795 21.0779 27.0208V27.0829C21.0779 27.1529 21.0917 27.2221 21.1185 27.2868C21.1453 27.3514 21.1845 27.4101 21.234 27.4596C21.2834 27.5091 21.3422 27.5483 21.4068 27.5751C21.4714 27.6018 21.5407 27.6156 21.6107 27.6156H25.8755C25.9454 27.6156 26.0147 27.6018 26.0793 27.5751C26.1439 27.5483 26.2026 27.5091 26.2521 27.4596C26.3016 27.4102 26.3408 27.3514 26.3676 27.2868C26.3943 27.2222 26.4081 27.1529 26.4081 27.083V27.0207C26.4081 26.9508 26.3943 26.8815 26.3676 26.8169C26.3408 26.7523 26.3016 26.6935 26.2521 26.6441C26.2026 26.5946 26.1439 26.5554 26.0793 26.5286C26.0147 26.5019 25.9454 26.4881 25.8755 26.4881L21.6106 26.4881Z" fill="#007FFF"/>
<path opacity="0.4" d="M29.9976 26.4883H34.2624C34.3323 26.4883 34.4016 26.5021 34.4662 26.5288C34.5308 26.5556 34.5896 26.5948 34.639 26.6443C34.6885 26.6937 34.7277 26.7525 34.7545 26.8171C34.7812 26.8817 34.795 26.951 34.795 27.0209V27.0832C34.795 27.1531 34.7812 27.2224 34.7545 27.287C34.7277 27.3516 34.6885 27.4103 34.639 27.4598C34.5896 27.5093 34.5308 27.5485 34.4662 27.5753C34.4016 27.602 34.3323 27.6158 34.2624 27.6158H29.9976C29.9276 27.6158 29.8583 27.602 29.7937 27.5753C29.7291 27.5485 29.6703 27.5092 29.6209 27.4598C29.5714 27.4103 29.5322 27.3516 29.5054 27.287C29.4786 27.2223 29.4648 27.153 29.4648 27.0831V27.021C29.4648 26.8797 29.521 26.7442 29.6209 26.6443C29.7208 26.5444 29.8563 26.4883 29.9976 26.4883L29.9976 26.4883Z" fill="#007FFF"/>
<path opacity="0.4" fill-rule="evenodd" clip-rule="evenodd" d="M29.9734 26.293H34.2622C34.3578 26.293 34.4524 26.3118 34.5407 26.3484C34.629 26.3849 34.7092 26.4385 34.7768 26.5061C34.8444 26.5737 34.898 26.6539 34.9345 26.7422C34.9711 26.8305 34.9899 26.9251 34.9899 27.0207V27.083C34.9899 27.1786 34.9711 27.2732 34.9345 27.3615C34.898 27.4498 34.8444 27.53 34.7768 27.5976C34.7092 27.6652 34.629 27.7188 34.5407 27.7553C34.4524 27.7919 34.3578 27.8107 34.2622 27.8107H29.9974C29.9974 27.8107 29.9974 27.8107 29.9974 27.8107C29.9018 27.8107 29.8072 27.7919 29.7189 27.7553C29.6305 27.7188 29.5503 27.6651 29.4827 27.5976C29.4151 27.53 29.3615 27.4497 29.3249 27.3614C29.2884 27.2731 29.2695 27.1785 29.2695 27.0829V27.0208C29.2695 26.8278 29.3462 26.6426 29.4827 26.5062C29.6131 26.3758 29.7879 26.3 29.9715 26.2934L29.9734 26.293ZM29.9974 26.4881C29.8561 26.4881 29.7206 26.5442 29.6207 26.6441C29.5208 26.744 29.4647 26.8795 29.4647 27.0208V27.0829C29.4647 27.1529 29.4784 27.2221 29.5052 27.2868C29.532 27.3514 29.5712 27.4101 29.6207 27.4596C29.6702 27.5091 29.7289 27.5483 29.7935 27.5751C29.8582 27.6018 29.9274 27.6156 29.9974 27.6156H34.2622C34.3321 27.6156 34.4014 27.6018 34.466 27.5751C34.5306 27.5483 34.5894 27.5091 34.6388 27.4596C34.6883 27.4102 34.7275 27.3514 34.7543 27.2868C34.781 27.2222 34.7948 27.1529 34.7948 27.083V27.0207C34.7948 26.9508 34.781 26.8815 34.7543 26.8169C34.7275 26.7523 34.6883 26.6935 34.6388 26.6441C34.5894 26.5946 34.5306 26.5554 34.466 26.5286C34.4014 26.5019 34.3321 26.4881 34.2622 26.4881L29.9974 26.4881Z" fill="#007FFF"/>
<path opacity="0.4" d="M14.1269 31.1025C14.1269 31.4666 13.8318 31.7617 13.4678 31.7617C13.1037 31.7617 12.8086 31.4666 12.8086 31.1025C12.8086 30.7385 13.1037 30.4434 13.4678 30.4434C13.8318 30.4434 14.1269 30.7385 14.1269 31.1025Z" fill="#007FFF"/>
<path opacity="0.4" fill-rule="evenodd" clip-rule="evenodd" d="M14.3258 31.1023C14.3258 31.5742 13.9433 31.9566 13.4715 31.9566C12.9997 31.9566 12.6172 31.5742 12.6172 31.1023C12.6172 30.6305 12.9997 30.248 13.4715 30.248C13.9433 30.248 14.3258 30.6305 14.3258 31.1023ZM13.4715 31.7615C13.8355 31.7615 14.1307 31.4664 14.1307 31.1023C14.1307 30.7383 13.8355 30.4432 13.4715 30.4432C13.1074 30.4432 12.8123 30.7383 12.8123 31.1023C12.8123 31.4664 13.1074 31.7615 13.4715 31.7615Z" fill="#007FFF"/>
<path opacity="0.4" d="M10.1738 31.1025C10.1738 31.4666 9.8787 31.7617 9.51465 31.7617C9.15059 31.7617 8.85547 31.4666 8.85547 31.1025C8.85547 30.7385 9.15059 30.4434 9.51465 30.4434C9.8787 30.4434 10.1738 30.7385 10.1738 31.1025Z" fill="#007FFF"/>
<path opacity="0.4" fill-rule="evenodd" clip-rule="evenodd" d="M10.3688 31.1023C10.3688 31.5742 9.98627 31.9566 9.51446 31.9566C9.04264 31.9566 8.66016 31.5742 8.66016 31.1023C8.66016 30.6305 9.04264 30.248 9.51446 30.248C9.98627 30.248 10.3688 30.6305 10.3688 31.1023ZM9.51446 31.7615C9.87851 31.7615 10.1736 31.4664 10.1736 31.1023C10.1736 30.7383 9.87851 30.4432 9.51446 30.4432C9.1504 30.4432 8.85528 30.7383 8.85528 31.1023C8.85528 31.4664 9.1504 31.7615 9.51446 31.7615Z" fill="#007FFF"/>
<path opacity="0.4" d="M22.5137 31.1025C22.5137 31.4666 22.2185 31.7617 21.8545 31.7617C21.4904 31.7617 21.1953 31.4666 21.1953 31.1025C21.1953 30.7385 21.4904 30.4434 21.8545 30.4434C22.2185 30.4434 22.5137 30.7385 22.5137 31.1025Z" fill="#007FFF"/>
<path opacity="0.4" fill-rule="evenodd" clip-rule="evenodd" d="M22.7086 31.1023C22.7086 31.5742 22.3261 31.9566 21.8543 31.9566C21.3825 31.9566 21 31.5742 21 31.1023C21 30.6305 21.3825 30.248 21.8543 30.248C22.3261 30.248 22.7086 30.6305 22.7086 31.1023ZM21.8543 31.7615C22.2184 31.7615 22.5135 31.4664 22.5135 31.1023C22.5135 30.7383 22.2184 30.4432 21.8543 30.4432C21.4902 30.4432 21.1951 30.7383 21.1951 31.1023C21.1951 31.4664 21.4902 31.7615 21.8543 31.7615Z" fill="#007FFF"/>
<path opacity="0.4" d="M26.4394 31.1025C26.4394 31.4666 26.1443 31.7617 25.7803 31.7617C25.4162 31.7617 25.1211 31.4666 25.1211 31.1025C25.1211 30.7385 25.4162 30.4434 25.7803 30.4434C26.1443 30.4434 26.4394 30.7385 26.4394 31.1025Z" fill="#007FFF"/>
<path opacity="0.4" fill-rule="evenodd" clip-rule="evenodd" d="M26.6344 31.1023C26.6344 31.5742 26.2519 31.9566 25.7801 31.9566C25.3083 31.9566 24.9258 31.5742 24.9258 31.1023C24.9258 30.6305 25.3083 30.248 25.7801 30.248C26.2519 30.248 26.6344 30.6305 26.6344 31.1023ZM25.7801 31.7615C26.1441 31.7615 26.4393 31.4664 26.4393 31.1023C26.4393 30.7383 26.1441 30.4432 25.7801 30.4432C25.416 30.4432 25.1209 30.7383 25.1209 31.1023C25.1209 31.4664 25.416 31.7615 25.7801 31.7615Z" fill="#007FFF"/>
<path opacity="0.4" d="M15.5288 30.4434H19.7936C19.8636 30.4434 19.9328 30.4571 19.9975 30.4839C20.0621 30.5107 20.1208 30.5499 20.1703 30.5994C20.2197 30.6488 20.259 30.7075 20.2857 30.7722C20.3125 30.8368 20.3263 30.906 20.3263 30.976V31.0383C20.3263 31.1082 20.3125 31.1775 20.2857 31.2421C20.259 31.3067 20.2197 31.3654 20.1703 31.4149C20.1208 31.4643 20.0621 31.5036 19.9975 31.5303C19.9328 31.5571 19.8636 31.5709 19.7936 31.5709H15.5288C15.4589 31.5709 15.3896 31.5571 15.325 31.5303C15.2603 31.5036 15.2016 31.4643 15.1521 31.4149C15.1027 31.3654 15.0634 31.3067 15.0366 31.242C15.0099 31.1774 14.9961 31.1081 14.9961 31.0382V30.9761C14.9961 30.8348 15.0522 30.6993 15.1521 30.5994C15.252 30.4995 15.3875 30.4434 15.5288 30.4434L15.5288 30.4434Z" fill="#007FFF"/>
<path opacity="0.4" fill-rule="evenodd" clip-rule="evenodd" d="M15.5046 30.248H19.7935C19.889 30.248 19.9837 30.2669 20.0719 30.3034C20.1602 30.34 20.2405 30.3936 20.308 30.4612C20.3756 30.5288 20.4292 30.609 20.4658 30.6973C20.5024 30.7856 20.5212 30.8802 20.5212 30.9758V31.0381C20.5212 31.1336 20.5024 31.2283 20.4658 31.3166C20.4292 31.4049 20.3756 31.4851 20.308 31.5527C20.2405 31.6202 20.1602 31.6738 20.0719 31.7104C19.9837 31.747 19.889 31.7658 19.7935 31.7658H15.5286C15.5286 31.7658 15.5286 31.7658 15.5286 31.7658C15.4331 31.7658 15.3384 31.747 15.2501 31.7104C15.1618 31.6738 15.0816 31.6202 15.014 31.5526C14.9464 31.4851 14.8928 31.4048 14.8562 31.3165C14.8196 31.2282 14.8008 31.1336 14.8008 31.038V30.9759C14.8008 30.7829 14.8775 30.5977 15.014 30.4612C15.1443 30.3308 15.3191 30.255 15.5028 30.2485L15.5046 30.248ZM15.5286 30.4432C15.3873 30.4432 15.2518 30.4993 15.1519 30.5992C15.052 30.6991 14.9959 30.8346 14.9959 30.9759V31.038C14.9959 31.1079 15.0097 31.1772 15.0365 31.2418C15.0632 31.3065 15.1025 31.3652 15.1519 31.4147C15.2014 31.4641 15.2601 31.5034 15.3248 31.5301C15.3894 31.5569 15.4587 31.5707 15.5286 31.5707H19.7935C19.8634 31.5707 19.9327 31.5569 19.9973 31.5301C20.0619 31.5034 20.1206 31.4642 20.1701 31.4147C20.2195 31.3652 20.2588 31.3065 20.2855 31.2419C20.3123 31.1773 20.3261 31.108 20.3261 31.0381V30.9758C20.3261 30.9058 20.3123 30.8366 20.2855 30.772C20.2588 30.7073 20.2195 30.6486 20.1701 30.5992C20.1206 30.5497 20.0619 30.5105 19.9973 30.4837C19.9327 30.4569 19.8634 30.4432 19.7935 30.4432L15.5286 30.4432Z" fill="#007FFF"/>
<path opacity="0.4" d="M29.5796 30.4434H33.8444C33.9144 30.4434 33.9836 30.4571 34.0483 30.4839C34.1129 30.5107 34.1716 30.5499 34.221 30.5994C34.2705 30.6488 34.3097 30.7075 34.3365 30.7722C34.3633 30.8368 34.377 30.906 34.377 30.976V31.0383C34.377 31.1082 34.3633 31.1775 34.3365 31.2421C34.3097 31.3067 34.2705 31.3654 34.221 31.4149C34.1716 31.4643 34.1129 31.5036 34.0483 31.5303C33.9836 31.5571 33.9144 31.5709 33.8444 31.5709H29.5796C29.5096 31.5709 29.4404 31.5571 29.3757 31.5303C29.3111 31.5036 29.2524 31.4643 29.2029 31.4149C29.1534 31.3654 29.1142 31.3067 29.0874 31.242C29.0607 31.1774 29.0469 31.1081 29.0469 31.0382V30.9761C29.0469 30.8348 29.103 30.6993 29.2029 30.5994C29.3028 30.4995 29.4383 30.4434 29.5796 30.4434L29.5796 30.4434Z" fill="#007FFF"/>
<path opacity="0.4" fill-rule="evenodd" clip-rule="evenodd" d="M29.5554 30.248H33.8442C33.9398 30.248 34.0344 30.2669 34.1227 30.3034C34.211 30.34 34.2912 30.3936 34.3588 30.4612C34.4264 30.5288 34.48 30.609 34.5166 30.6973C34.5531 30.7856 34.572 30.8802 34.572 30.9758V31.0381C34.572 31.1336 34.5531 31.2283 34.5166 31.3166C34.48 31.4049 34.4264 31.4851 34.3588 31.5527C34.2912 31.6202 34.211 31.6738 34.1227 31.7104C34.0344 31.747 33.9398 31.7658 33.8442 31.7658H29.5794C29.5794 31.7658 29.5794 31.7658 29.5794 31.7658C29.4838 31.7658 29.3892 31.747 29.3009 31.7104C29.2126 31.6738 29.1323 31.6202 29.0647 31.5526C28.9972 31.4851 28.9435 31.4048 28.907 31.3165C28.8704 31.2282 28.8516 31.1336 28.8516 31.038V30.9759C28.8516 30.7829 28.9282 30.5977 29.0647 30.4612C29.1951 30.3308 29.3699 30.255 29.5535 30.2485L29.5554 30.248ZM29.5794 30.4432C29.4381 30.4432 29.3026 30.4993 29.2027 30.5992C29.1028 30.6991 29.0467 30.8346 29.0467 30.9759V31.038C29.0467 31.1079 29.0605 31.1772 29.0872 31.2418C29.114 31.3065 29.1533 31.3652 29.2027 31.4147C29.2522 31.4641 29.3109 31.5034 29.3755 31.5301C29.4402 31.5569 29.5095 31.5707 29.5794 31.5707H33.8442C33.9142 31.5707 33.9834 31.5569 34.0481 31.5301C34.1127 31.5034 34.1714 31.4642 34.2209 31.4147C34.2703 31.3652 34.3095 31.3065 34.3363 31.2419C34.3631 31.1773 34.3768 31.108 34.3768 31.0381V30.9758C34.3768 30.9058 34.3631 30.8366 34.3363 30.772C34.3095 30.7073 34.2703 30.6486 34.2209 30.5992C34.1714 30.5497 34.1127 30.5105 34.0481 30.4837C33.9834 30.4569 33.9142 30.4432 33.8442 30.4432L29.5794 30.4432Z" fill="#007FFF"/>
</svg>
