<svg width="24" height="24" viewBox="0 0 24 24" fill="none" xmlns="http://www.w3.org/2000/svg">
<path fill-rule="evenodd" clip-rule="evenodd" d="M13.9924 3.75573C13.9924 3.33835 14.3307 3 14.7481 3H20.2443C20.6617 3 21 3.33835 21 3.75573V9.25191C21 9.66928 20.6617 10.0076 20.2443 10.0076C19.8269 10.0076 19.4886 9.66928 19.4886 9.25191V5.58026L10.7028 14.3664C10.4077 14.6616 9.92916 14.6616 9.63402 14.3665C9.33888 14.0713 9.33887 13.5928 9.634 13.2977L18.4198 4.51145H14.7481C14.3307 4.51145 13.9924 4.1731 13.9924 3.75573ZM5.58779 7.25954C5.30232 7.25954 5.02855 7.37294 4.8267 7.57479C4.62485 7.77665 4.51145 8.05042 4.51145 8.33588V18.4122C4.51145 18.6977 4.62485 18.9714 4.8267 19.1733C5.02855 19.3752 5.30232 19.4886 5.58779 19.4886H15.6641C15.9496 19.4886 16.2234 19.3752 16.4252 19.1733C16.6271 18.9714 16.7405 18.6977 16.7405 18.4122V12.916C16.7405 12.4987 17.0788 12.1603 17.4962 12.1603C17.9136 12.1603 18.2519 12.4987 18.2519 12.916V18.4122C18.2519 19.0985 17.9793 19.7568 17.494 20.2421C17.0087 20.7274 16.3504 21 15.6641 21H5.58779C4.90146 21 4.24325 20.7274 3.75795 20.2421C3.27264 19.7568 3 19.0985 3 18.4122V8.33588C3 7.64955 3.27264 6.99134 3.75795 6.50604C4.24325 6.02073 4.90146 5.74809 5.58779 5.74809H11.084C11.5013 5.74809 11.8397 6.08644 11.8397 6.50382C11.8397 6.92119 11.5013 7.25954 11.084 7.25954H5.58779Z" fill="#AFAFAF"/>
</svg>
