<svg width="16" height="16" viewBox="0 0 16 16" fill="none" xmlns="http://www.w3.org/2000/svg">
<path fill-rule="evenodd" clip-rule="evenodd" d="M9.3777 1H9.42346C9.45092 1 9.48753 1.00912 9.51499 1.01824C9.52415 1.01824 9.54245 1.02736 9.5516 1.02736C9.59737 1.0456 9.63398 1.07296 9.6706 1.10945L13.881 5.30489L13.9268 5.41433C13.9176 5.35049 13.9176 5.35049 13.8993 5.32313L13.8902 5.31401L13.9268 5.35961C13.9359 5.37785 13.9542 5.39609 13.9634 5.42345C13.9725 5.43257 13.9725 5.44169 13.9725 5.45993V5.46906C13.9817 5.49642 13.9908 5.52378 13.9908 5.55114C13.9908 5.56938 14 5.5785 14 5.59674V11.1511C14 12.1453 13.1945 12.9479 12.1968 12.9479H11.2083V13.2033C11.2083 14.1974 10.4028 15 9.40516 15H3.80347C2.80579 15 2.00032 14.1974 2.00032 13.2033V4.84886C1.98201 3.87296 2.76002 3.07036 3.73025 3.05212C3.75771 3.05212 3.77601 3.05212 3.80347 3.05212H4.79201V2.79674C4.79201 1.80261 5.60663 1 6.59516 1H9.3777ZM6.17412 3.86384H3.80347C3.25429 3.86384 2.81494 4.30163 2.81494 4.84886V13.2033C2.81494 13.7505 3.26344 14.1883 3.80347 14.1883H9.396C9.94519 14.1883 10.3845 13.7505 10.3845 13.2033V8.05016H7.98643C6.98874 8.05016 6.18327 7.24756 6.18327 6.25342L6.17412 3.86384ZM9.78043 2.38632V4.21042C9.78043 4.75765 10.2289 5.19544 10.769 5.19544H12.5996L9.78043 2.38632ZM6.98874 4.42932V6.25342C6.98874 6.80065 7.43724 7.23844 7.97728 7.23844H9.80789L6.98874 4.42932ZM12.1877 12.1362C12.7369 12.1362 13.1762 11.6984 13.1762 11.1511V6.00717H10.769C9.77128 6.00717 8.96581 5.20456 8.96581 4.21042V1.81173H6.59516C6.04598 1.81173 5.60663 2.24951 5.60663 2.79674V3.05212H6.58601L6.63177 3.06124C6.65923 3.06124 6.69584 3.07036 6.7233 3.07948L6.75076 3.0886C6.79653 3.10684 6.83314 3.1342 6.86975 3.17068L11.0802 7.36612L11.0893 7.37524C11.1168 7.41173 11.1442 7.44821 11.1625 7.48469C11.1717 7.50293 11.1717 7.50293 11.1717 7.51205V7.52117C11.1809 7.54853 11.19 7.5759 11.19 7.60326C11.19 7.6215 11.1992 7.63062 11.1992 7.64886V12.1453L12.1877 12.1362Z" fill="#AFAFAF"/>
</svg>
