<svg width="24" height="24" viewBox="0 0 24 24" fill="none" xmlns="http://www.w3.org/2000/svg">
<path d="M14.5744 13.0817C15.1527 13.0817 15.6215 12.6197 15.6215 12.0497C15.6215 11.4797 15.1527 11.0176 14.5744 11.0176C13.9961 11.0176 13.5273 11.4797 13.5273 12.0497C13.5273 12.6197 13.9961 13.0817 14.5744 13.0817Z" fill="#AFAFAF"/>
<path d="M21.5682 9.16364H14.3737C13.5981 9.16465 12.8546 9.46908 12.3065 10.01C11.7584 10.551 11.4505 11.2843 11.4505 12.0488C11.4505 12.8134 11.7584 13.5467 12.3065 14.0876C12.8546 14.6286 13.5981 14.933 14.3737 14.934H19.8459V18.3861C19.8458 18.5704 19.8079 18.7528 19.7346 18.9223C19.6271 19.172 19.4476 19.385 19.2183 19.5349C18.989 19.6848 18.72 19.7649 18.4449 19.7654H4.55964C4.18866 19.7646 3.83311 19.619 3.57065 19.3606C3.30819 19.1021 3.16015 18.7518 3.15885 18.3861V5.67363C3.15993 5.3079 3.30791 4.95747 3.57042 4.699C3.83293 4.44052 4.1886 4.29504 4.55964 4.29437H13.3484V4.29173H13.9581C14.0342 4.29195 14.1096 4.27737 14.1799 4.24883C14.2503 4.22028 14.3142 4.17833 14.3681 4.12538C14.422 4.07243 14.4648 4.00952 14.4939 3.94025C14.5231 3.87099 14.5381 3.79673 14.5381 3.72173C14.5381 3.64673 14.5231 3.57247 14.4939 3.5032C14.4648 3.43394 14.422 3.37103 14.3681 3.31807C14.3142 3.26512 14.2503 3.22317 14.1799 3.19463C14.1096 3.16608 14.0342 3.1515 13.9581 3.15173H13.3484V3.15039H4.55964C3.8814 3.1525 3.23156 3.41902 2.75199 3.89177C2.27242 4.36452 2.00208 5.00509 2 5.67363V18.3861C2.00206 19.0547 2.2724 19.6953 2.75197 20.168C3.23155 20.6408 3.88142 20.9073 4.55966 20.9093H18.4449C19.1231 20.9073 19.773 20.6408 20.2526 20.168C20.7322 19.6953 21.0025 19.0547 21.0046 18.3861V14.934H21.5682C21.8908 14.934 22.2001 14.8077 22.4282 14.5829C22.6563 14.3581 22.7845 14.0531 22.7845 13.7352V10.3625C22.7845 10.2051 22.753 10.0492 22.6919 9.90372C22.6308 9.75827 22.5412 9.62611 22.4282 9.51479C22.3153 9.40346 22.1812 9.31515 22.0337 9.2549C21.8861 9.19465 21.7279 9.16364 21.5682 9.16364ZM21.7251 13.7352C21.725 13.7761 21.7085 13.8154 21.6791 13.8444C21.6497 13.8734 21.6098 13.8897 21.5682 13.8898H14.3737C14.1282 13.8902 13.885 13.8429 13.658 13.7505C13.4311 13.6582 13.2248 13.5227 13.0511 13.3517C12.8773 13.1807 12.7395 12.9776 12.6454 12.754C12.5514 12.5305 12.5029 12.2908 12.5029 12.0488C12.5029 11.8068 12.5514 11.5672 12.6454 11.3436C12.7395 11.1201 12.8773 10.917 13.0511 10.746C13.2248 10.575 13.4311 10.4395 13.658 10.3471C13.885 10.2548 14.1282 10.2075 14.3737 10.2079H21.5682C21.6098 10.2079 21.6497 10.2242 21.6791 10.2532C21.7085 10.2822 21.725 10.3215 21.7251 10.3625V13.7352Z" fill="#AFAFAF"/>
<path d="M18.4348 4.34998H4.73913C3.98274 4.34998 3.36957 4.95438 3.36957 5.69995V18.2997C3.36957 19.0453 3.98274 19.6497 4.73913 19.6497H18.4348C19.1912 19.6497 19.8043 19.0453 19.8043 18.2997V14.2498H21.1739V18.2997C21.1739 19.7909 19.9476 20.9997 18.4348 20.9997H4.73913C3.22635 20.9997 2 19.7909 2 18.2997V5.69995C2 4.20881 3.22635 3 4.73913 3H18.4348C19.9476 3 21.1739 4.20881 21.1739 5.69995V9.74989H20.7174H19.8043V5.69995C19.8043 4.95438 19.1912 4.34998 18.4348 4.34998Z" fill="#AFAFAF"/>
</svg>
