<svg width="16" height="16" viewBox="0 0 16 16" fill="none" xmlns="http://www.w3.org/2000/svg">
<path d="M4.01303 2C3.47914 2 2.96712 2.21209 2.5896 2.5896C2.21209 2.96712 2 3.47914 2 4.01303V5.65472C2 5.85981 2.16625 6.02606 2.37134 6.02606C2.57642 6.02606 2.74267 5.85981 2.74267 5.65472V4.01303C2.74267 3.67611 2.87651 3.35299 3.11475 3.11475C3.35299 2.87651 3.67611 2.74267 4.01303 2.74267H5.65472C5.85981 2.74267 6.02606 2.57642 6.02606 2.37134C6.02606 2.16625 5.85981 2 5.65472 2H4.01303Z" fill="#AFAFAF"/>
<path d="M10.3453 2C10.1402 2 9.97394 2.16625 9.97394 2.37134C9.97394 2.57642 10.1402 2.74267 10.3453 2.74267H11.987C12.3239 2.74267 12.647 2.87651 12.8852 3.11475C13.1235 3.35299 13.2573 3.67611 13.2573 4.01303V5.65472C13.2573 5.85981 13.4236 6.02606 13.6287 6.02606C13.8337 6.02606 14 5.85981 14 5.65472V4.01303C14 3.47914 13.7879 2.96712 13.4104 2.5896C13.0329 2.21209 12.5209 2 11.987 2H10.3453Z" fill="#AFAFAF"/>
<path d="M2.74267 10.3453C2.74267 10.1402 2.57642 9.97394 2.37134 9.97394C2.16625 9.97394 2 10.1402 2 10.3453V11.987C2 12.5209 2.21209 13.0329 2.5896 13.4104C2.96712 13.7879 3.47914 14 4.01303 14H5.65472C5.85981 14 6.02606 13.8337 6.02606 13.6287C6.02606 13.4236 5.85981 13.2573 5.65472 13.2573H4.01303C3.67611 13.2573 3.35299 13.1235 3.11475 12.8852C2.87651 12.647 2.74267 12.3239 2.74267 11.987V10.3453Z" fill="#AFAFAF"/>
<path d="M14 10.3453C14 10.1402 13.8337 9.97394 13.6287 9.97394C13.4236 9.97394 13.2573 10.1402 13.2573 10.3453V11.987C13.2573 12.3239 13.1235 12.647 12.8852 12.8852C12.647 13.1235 12.3239 13.2573 11.987 13.2573H10.3453C10.1402 13.2573 9.97394 13.4236 9.97394 13.6287C9.97394 13.8337 10.1402 14 10.3453 14H11.987C12.5209 14 13.0329 13.7879 13.4104 13.4104C13.7879 13.0329 14 12.5209 14 11.987V10.3453Z" fill="#AFAFAF"/>
<path fill-rule="evenodd" clip-rule="evenodd" d="M6.5989 4.95421H5.12198C5.02002 4.95421 4.93736 5.03686 4.93736 5.13882V6.61575C4.93736 6.7177 5.02002 6.80036 5.12198 6.80036H6.5989C6.70086 6.80036 6.78352 6.71771 6.78352 6.61574V5.13882C6.78352 5.03686 6.70086 4.95421 6.5989 4.95421ZM5.12198 4.21575C4.61218 4.21575 4.1989 4.62902 4.1989 5.13882V6.61575C4.1989 7.12555 4.61218 7.53882 5.12198 7.53882H6.5989C7.1087 7.53882 7.52198 7.12555 7.52198 6.61574V5.13882C7.52198 4.62902 7.1087 4.21575 6.5989 4.21575H5.12198Z" fill="#AFAFAF"/>
<path fill-rule="evenodd" clip-rule="evenodd" d="M11.0304 4.95421H9.55347C9.45151 4.95421 9.36885 5.03686 9.36885 5.13882V6.61575C9.36885 6.7177 9.45151 6.80036 9.55347 6.80036H11.0304C11.1324 6.80036 11.215 6.71771 11.215 6.61574V5.13882C11.215 5.03686 11.1324 4.95421 11.0304 4.95421ZM9.55347 4.21575C9.04367 4.21575 8.63039 4.62902 8.63039 5.13882V6.61575C8.63039 7.12555 9.04367 7.53882 9.55347 7.53882H11.0304C11.5402 7.53882 11.9535 7.12555 11.9535 6.61574V5.13882C11.9535 4.62902 11.5402 4.21575 11.0304 4.21575H9.55347Z" fill="#AFAFAF"/>
<path fill-rule="evenodd" clip-rule="evenodd" d="M6.5989 9.2H5.12198C5.02002 9.2 4.93736 9.28265 4.93736 9.38462V10.8615C4.93736 10.9635 5.02002 11.0462 5.12198 11.0462H6.5989C6.70086 11.0462 6.78352 10.9635 6.78352 10.8615V9.38462C6.78352 9.28266 6.70086 9.2 6.5989 9.2ZM5.12198 8.46154C4.61218 8.46154 4.1989 8.87481 4.1989 9.38462V10.8615C4.1989 11.3713 4.61218 11.7846 5.12198 11.7846H6.5989C7.1087 11.7846 7.52198 11.3713 7.52198 10.8615V9.38462C7.52198 8.87481 7.1087 8.46154 6.5989 8.46154H5.12198Z" fill="#AFAFAF"/>
<path fill-rule="evenodd" clip-rule="evenodd" d="M8.72831 9.67313C8.72831 9.00399 9.25617 8.46154 9.90732 8.46154H10.1038C10.3209 8.46154 10.4968 8.64235 10.4968 8.8654C10.4968 9.08845 10.3209 9.26926 10.1038 9.26926H9.90732C9.69027 9.26926 9.51431 9.45008 9.51431 9.67313V9.87506C9.51431 10.0981 9.33836 10.2789 9.12131 10.2789C8.90426 10.2789 8.72831 10.0981 8.72831 9.87506V9.67313Z" fill="#AFAFAF"/>
<path fill-rule="evenodd" clip-rule="evenodd" d="M11.8604 10.4807C11.8604 11.1499 11.3326 11.6923 10.6814 11.6923H10.3003C10.0833 11.6923 9.90732 11.5115 9.90732 11.2884C9.90732 11.0654 10.0833 10.8846 10.3003 10.8846H10.6814C10.8985 10.8846 11.0744 10.7038 11.0744 10.4807L11.0744 9.26913C11.0744 9.04608 11.2504 8.86527 11.4674 8.86527C11.6845 8.86527 11.8604 9.04608 11.8604 9.26913V10.4807Z" fill="#AFAFAF"/>
<path d="M9.61218 11.1875C9.61218 11.4663 9.39224 11.6923 9.12093 11.6923C8.84961 11.6923 8.62967 11.4663 8.62967 11.1875C8.62967 10.9087 8.84961 10.6827 9.12093 10.6827C9.39224 10.6827 9.61218 10.9087 9.61218 11.1875Z" fill="#AFAFAF"/>
</svg>
