<svg width="24" height="24" viewBox="0 0 24 24" fill="none" xmlns="http://www.w3.org/2000/svg">
<path d="M3 8.73067C3 8.93277 3.07895 9.11933 3.22105 9.25924L11.4158 17.7319C11.7 18.0584 12.1895 18.0895 12.5053 17.8097C12.5368 17.7941 12.5526 17.763 12.5842 17.7475L20.7789 9.27479C20.9211 9.13487 21 8.94832 21 8.74622C21 8.34202 20.6842 8 20.2737 8C20.2579 8 20.2579 8 20.2421 8C20.0368 8 19.8474 8.07773 19.7053 8.21765L12.0158 16.1929L4.29474 8.21765C4.15263 8.07773 3.94737 8 3.75789 8C3.34737 8 3.01579 8.31092 3 8.71513V8.73067Z" fill="#AFAFAF"/>
</svg>
