<svg width="38" height="38" viewBox="0 0 38 38" fill="none" xmlns="http://www.w3.org/2000/svg">
<g clip-path="url(#clip0_8223_2323)">
<path d="M19.0199 37.3699C29.1543 37.3699 37.3699 29.1543 37.3699 19.0199C37.3699 8.8855 29.1543 0.669922 19.0199 0.669922C8.8855 0.669922 0.669922 8.8855 0.669922 19.0199C0.669922 29.1543 8.8855 37.3699 19.0199 37.3699Z" fill="#2BA891"/>
<path fill-rule="evenodd" clip-rule="evenodd" d="M16.1807 9.02069C15.9333 8.91926 15.6505 9.03759 15.5491 9.28499C15.4477 9.5324 15.566 9.81518 15.8134 9.91661L16.8609 10.3461C16.1793 10.6267 15.5347 10.9936 14.9433 11.4391C14.0336 12.1245 13.2678 12.9824 12.6896 13.9638C12.1114 14.9451 11.7321 16.0308 11.5735 17.1587C11.4446 18.0749 11.4634 19.0045 11.6278 19.9122C11.6908 20.2602 12.0426 20.4658 12.385 20.3773C12.7274 20.2888 12.9303 19.9396 12.8717 19.5909C12.7468 18.8468 12.7362 18.0867 12.8417 17.3371C12.9769 16.3757 13.3001 15.4503 13.793 14.6139C14.2858 13.7774 14.9385 13.0462 15.7139 12.462C16.2601 12.0505 16.8596 11.7176 17.4949 11.4718L16.9855 12.7143C16.8841 12.9617 17.0024 13.2445 17.2498 13.3459C17.4972 13.4473 17.78 13.329 17.8814 13.0816L18.8436 10.7348C18.9039 10.5877 18.8865 10.428 18.8104 10.3014C18.7717 10.1623 18.6714 10.0419 18.5275 9.98283L16.1807 9.02069ZM15.5913 19.198C15.2895 19.5064 15.1159 19.9178 15.1056 20.3491C15.1124 20.5932 15.17 20.8333 15.2748 21.0539C15.3795 21.2745 15.5291 21.4708 15.714 21.6303L15.5901 21.7543C15.2927 22.0626 15.1232 22.4721 15.1155 22.9004C15.1155 24.5546 17.7176 25.6673 21.1151 25.6673C24.5127 25.6673 27.1172 24.5521 27.1172 22.9016L27.111 22.7653C27.0661 22.3881 26.8995 22.0358 26.6365 21.7617L26.5299 21.6613L26.5089 21.6365H26.4915L26.5213 21.6105C26.6993 21.4513 26.8428 21.2574 26.9432 21.0407C27.0436 20.824 27.0986 20.5891 27.1048 20.3504L27.0986 20.2153C27.0546 19.8378 26.8879 19.4852 26.6241 19.2117L26.5175 19.0989L26.4928 19.0741C26.6832 18.9129 26.8375 18.7134 26.9458 18.4886C27.054 18.2638 27.1137 18.0188 27.1209 17.7694C27.1209 16.1003 24.5078 14.9814 21.1077 14.9814C17.7077 14.9814 15.0882 16.0966 15.0882 17.7619C15.0961 18.0114 15.1561 18.2564 15.2643 18.4813C15.3725 18.7062 15.5265 18.906 15.7165 19.0679L15.5913 19.198ZM21.1126 24.3811C18.5019 24.3811 16.4041 23.5608 16.4041 22.9091C16.4022 22.8399 16.4181 22.7713 16.4505 22.7101C16.4828 22.6489 16.5304 22.597 16.5887 22.5597L16.6011 22.5497L16.6135 22.5374V22.5175L16.6222 22.5262L16.6805 22.4531C16.6981 22.427 16.7138 22.3997 16.7275 22.3713L16.7474 22.3131L16.9481 22.4023C18.2059 22.8854 19.5435 23.1272 20.8909 23.1148H21.3307C22.7321 23.1318 24.1226 22.8672 25.4197 22.3366L25.6353 22.5547L25.6898 22.6167C25.764 22.6976 25.8104 22.8 25.8224 22.9091C25.8212 23.5608 23.7234 24.3811 21.1126 24.3811ZM20.8971 16.3073H21.3171C23.8201 16.3494 25.8013 17.1362 25.8013 17.7632C25.8013 18.3901 23.7085 19.2191 21.1077 19.2191C18.5069 19.2191 16.4128 18.4063 16.4128 17.7632C16.4128 17.1201 18.3929 16.3494 20.8971 16.3073ZM16.3979 20.2983C16.4077 20.2066 16.452 20.1219 16.5219 20.0617L16.5702 20.0158L16.5912 19.9985L16.6073 19.9824V19.9625L16.6173 19.97L16.6755 19.8969C16.6933 19.8713 16.7091 19.8444 16.7226 19.8163L16.7498 19.7445C18.1302 20.3171 19.6164 20.5907 21.1102 20.5474C22.578 20.5867 24.0382 20.3235 25.3999 19.7742L25.6229 19.9997L25.6786 20.0617C25.7525 20.1427 25.7989 20.2451 25.8112 20.3541C25.8112 21.0071 23.7135 21.8274 21.1027 21.8274C18.492 21.8274 16.3942 21.0071 16.3942 20.3541L16.3979 20.2983ZM9.83413 15.9858C9.49933 15.8719 9.13312 16.0505 9.04421 16.3928C8.73651 17.5774 8.68299 18.8138 8.88719 20.0205C8.94619 20.3692 9.29559 20.5788 9.63898 20.4942C9.98237 20.4097 10.1893 20.0629 10.1347 19.7135C9.98367 18.7458 10.0265 17.7575 10.2606 16.8064C10.3451 16.4631 10.1689 16.0997 9.83413 15.9858Z" fill="white"/>
</g>
<defs>
<clipPath id="clip0_8223_2323">
<rect width="36.7" height="36.7" fill="white" transform="translate(0.669922 0.669922)"/>
</clipPath>
</defs>
</svg>
