<svg width="24" height="24" viewBox="0 0 24 24" fill="none" xmlns="http://www.w3.org/2000/svg">
<path fill-rule="evenodd" clip-rule="evenodd" d="M12 0C5.37258 0 0 5.37258 0 12C0 18.6274 5.37258 24 12 24C18.6274 24 24 18.6274 24 12C24 5.37258 18.6274 0 12 0ZM1.95918 12C1.95918 6.45461 6.45461 1.95918 12 1.95918C17.5454 1.95918 22.0408 6.45461 22.0408 12C22.0408 17.5454 17.5454 22.0408 12 22.0408C6.45461 22.0408 1.95918 17.5454 1.95918 12ZM12 5.87755C11.459 5.87755 11.0204 6.31613 11.0204 6.85714V11.0204H6.85714C6.31613 11.0204 5.87755 11.459 5.87755 12C5.87755 12.541 6.31613 12.9796 6.85714 12.9796H11.0204V17.1429C11.0204 17.6839 11.459 18.1224 12 18.1224C12.541 18.1224 12.9796 17.6839 12.9796 17.1429V12.9796H17.1429C17.6839 12.9796 18.1224 12.541 18.1224 12C18.1224 11.459 17.6839 11.0204 17.1429 11.0204H12.9796V6.85714C12.9796 6.31613 12.541 5.87755 12 5.87755Z" fill="#AFAFAF"/>
</svg>
